<svg xmlns="http://www.w3.org/2000/svg" xmlns:xlink="http://www.w3.org/1999/xlink" width="50" zoomAndPan="magnify" viewBox="0 0 37.5 37.499999" height="50" preserveAspectRatio="xMidYMid meet" version="1.0"><defs><clipPath id="6ddc372231"><path d="M 8.425781 7.308594 L 28.410156 7.308594 L 28.410156 29.511719 L 8.425781 29.511719 Z M 8.425781 7.308594 " clip-rule="nonzero"/></clipPath><clipPath id="a5fbe13649"><path d="M 8.425781 23 L 10 23 L 10 25 L 8.425781 25 Z M 8.425781 23 " clip-rule="nonzero"/></clipPath></defs><path fill="#36352a" d="M 11.039062 18.128906 L 12.53125 18.128906 C 12.738281 18.128906 12.914062 18.054688 13.058594 17.910156 C 13.203125 17.761719 13.277344 17.585938 13.277344 17.382812 L 13.277344 15.886719 C 13.277344 15.683594 13.203125 15.507812 13.058594 15.359375 C 12.914062 15.214844 12.738281 15.140625 12.53125 15.140625 L 11.039062 15.140625 C 10.832031 15.140625 10.65625 15.214844 10.511719 15.359375 C 10.367188 15.507812 10.292969 15.683594 10.292969 15.886719 L 10.292969 17.382812 C 10.292969 17.585938 10.367188 17.761719 10.511719 17.910156 C 10.65625 18.054688 10.832031 18.128906 11.039062 18.128906 Z M 11.039062 15.886719 L 12.53125 15.886719 L 12.53125 17.382812 L 11.039062 17.382812 Z M 11.039062 15.886719 " fill-opacity="1" fill-rule="nonzero"/><path fill="#36352a" d="M 15.515625 18.128906 L 17.007812 18.128906 C 17.214844 18.128906 17.390625 18.054688 17.535156 17.910156 C 17.679688 17.761719 17.753906 17.585938 17.753906 17.382812 L 17.753906 15.886719 C 17.753906 15.683594 17.679688 15.507812 17.535156 15.359375 C 17.390625 15.214844 17.214844 15.140625 17.007812 15.140625 L 15.515625 15.140625 C 15.308594 15.140625 15.132812 15.214844 14.988281 15.359375 C 14.84375 15.507812 14.769531 15.683594 14.769531 15.886719 L 14.769531 17.382812 C 14.769531 17.585938 14.84375 17.761719 14.988281 17.910156 C 15.132812 18.054688 15.308594 18.128906 15.515625 18.128906 Z M 15.515625 15.886719 L 17.007812 15.886719 L 17.007812 17.382812 L 15.515625 17.382812 Z M 15.515625 15.886719 " fill-opacity="1" fill-rule="nonzero"/><path fill="#36352a" d="M 19.992188 18.128906 L 21.484375 18.128906 C 21.691406 18.128906 21.867188 18.054688 22.011719 17.910156 C 22.15625 17.761719 22.230469 17.585938 22.230469 17.382812 L 22.230469 15.886719 C 22.230469 15.683594 22.15625 15.507812 22.011719 15.359375 C 21.867188 15.214844 21.691406 15.140625 21.484375 15.140625 L 19.992188 15.140625 C 19.785156 15.140625 19.609375 15.214844 19.464844 15.359375 C 19.320312 15.507812 19.246094 15.683594 19.246094 15.886719 L 19.246094 17.382812 C 19.246094 17.585938 19.320312 17.761719 19.464844 17.910156 C 19.609375 18.054688 19.785156 18.128906 19.992188 18.128906 Z M 19.992188 15.886719 L 21.484375 15.886719 L 21.484375 17.382812 L 19.992188 17.382812 Z M 19.992188 15.886719 " fill-opacity="1" fill-rule="nonzero"/><path fill="#36352a" d="M 24.46875 18.128906 L 25.960938 18.128906 C 26.167969 18.128906 26.34375 18.054688 26.488281 17.910156 C 26.632812 17.761719 26.707031 17.585938 26.707031 17.382812 L 26.707031 15.886719 C 26.707031 15.683594 26.632812 15.507812 26.488281 15.359375 C 26.34375 15.214844 26.167969 15.140625 25.960938 15.140625 L 24.46875 15.140625 C 24.261719 15.140625 24.085938 15.214844 23.941406 15.359375 C 23.796875 15.507812 23.722656 15.683594 23.722656 15.886719 L 23.722656 17.382812 C 23.722656 17.585938 23.796875 17.761719 23.941406 17.910156 C 24.085938 18.054688 24.261719 18.128906 24.46875 18.128906 Z M 24.46875 15.886719 L 25.960938 15.886719 L 25.960938 17.382812 L 24.46875 17.382812 Z M 24.46875 15.886719 " fill-opacity="1" fill-rule="nonzero"/><path fill="#36352a" d="M 10.292969 21.484375 C 10.292969 21.691406 10.367188 21.867188 10.511719 22.011719 C 10.65625 22.15625 10.832031 22.230469 11.039062 22.230469 L 12.53125 22.230469 C 12.738281 22.230469 12.914062 22.15625 13.058594 22.011719 C 13.203125 21.867188 13.277344 21.691406 13.277344 21.484375 L 13.277344 19.992188 C 13.277344 19.785156 13.203125 19.609375 13.058594 19.464844 C 12.914062 19.320312 12.738281 19.246094 12.53125 19.246094 L 11.039062 19.246094 C 10.832031 19.246094 10.65625 19.320312 10.511719 19.464844 C 10.367188 19.609375 10.292969 19.785156 10.292969 19.992188 Z M 11.039062 19.992188 L 12.53125 19.992188 L 12.53125 21.484375 L 11.039062 21.484375 Z M 11.039062 19.992188 " fill-opacity="1" fill-rule="nonzero"/><path fill="#36352a" d="M 14.769531 21.296875 C 14.769531 21.503906 14.84375 21.679688 14.988281 21.824219 C 15.132812 21.972656 15.308594 22.042969 15.515625 22.042969 L 17.007812 22.042969 C 17.214844 22.042969 17.390625 21.972656 17.535156 21.824219 C 17.679688 21.679688 17.753906 21.503906 17.753906 21.296875 L 17.753906 19.804688 C 17.753906 19.601562 17.679688 19.425781 17.535156 19.277344 C 17.390625 19.132812 17.214844 19.058594 17.007812 19.058594 L 15.515625 19.058594 C 15.308594 19.058594 15.132812 19.132812 14.988281 19.277344 C 14.84375 19.425781 14.769531 19.601562 14.769531 19.804688 Z M 15.515625 19.804688 L 17.007812 19.804688 L 17.007812 21.296875 L 15.515625 21.296875 Z M 15.515625 19.804688 " fill-opacity="1" fill-rule="nonzero"/><path fill="#36352a" d="M 19.246094 21.296875 C 19.246094 21.503906 19.320312 21.679688 19.464844 21.824219 C 19.609375 21.972656 19.785156 22.042969 19.992188 22.042969 L 21.484375 22.042969 C 21.691406 22.042969 21.867188 21.972656 22.011719 21.824219 C 22.15625 21.679688 22.230469 21.503906 22.230469 21.296875 L 22.230469 19.804688 C 22.230469 19.601562 22.15625 19.425781 22.011719 19.277344 C 21.867188 19.132812 21.691406 19.058594 21.484375 19.058594 L 19.992188 19.058594 C 19.785156 19.058594 19.609375 19.132812 19.464844 19.277344 C 19.320312 19.425781 19.246094 19.601562 19.246094 19.804688 Z M 19.992188 19.804688 L 21.484375 19.804688 L 21.484375 21.296875 L 19.992188 21.296875 Z M 19.992188 19.804688 " fill-opacity="1" fill-rule="nonzero"/><path fill="#36352a" d="M 23.722656 21.296875 C 23.722656 21.503906 23.796875 21.679688 23.941406 21.824219 C 24.085938 21.972656 24.261719 22.042969 24.46875 22.042969 L 25.960938 22.042969 C 26.167969 22.042969 26.34375 21.972656 26.488281 21.824219 C 26.632812 21.679688 26.707031 21.503906 26.707031 21.296875 L 26.707031 19.804688 C 26.707031 19.601562 26.632812 19.425781 26.488281 19.277344 C 26.34375 19.132812 26.167969 19.058594 25.960938 19.058594 L 24.46875 19.058594 C 24.261719 19.058594 24.085938 19.132812 23.941406 19.277344 C 23.796875 19.425781 23.722656 19.601562 23.722656 19.804688 Z M 24.46875 19.804688 L 25.960938 19.804688 L 25.960938 21.296875 L 24.46875 21.296875 Z M 24.46875 19.804688 " fill-opacity="1" fill-rule="nonzero"/><path fill="#36352a" d="M 10.292969 25.214844 C 10.292969 25.421875 10.367188 25.597656 10.511719 25.742188 C 10.65625 25.886719 10.832031 25.960938 11.039062 25.960938 L 12.53125 25.960938 C 12.738281 25.960938 12.914062 25.886719 13.058594 25.742188 C 13.203125 25.597656 13.277344 25.421875 13.277344 25.214844 L 13.277344 23.722656 C 13.277344 23.515625 13.203125 23.339844 13.058594 23.195312 C 12.914062 23.050781 12.738281 22.976562 12.53125 22.976562 L 11.039062 22.976562 C 10.832031 22.976562 10.65625 23.050781 10.511719 23.195312 C 10.367188 23.339844 10.292969 23.515625 10.292969 23.722656 Z M 11.039062 23.722656 L 12.53125 23.722656 L 12.53125 25.214844 L 11.039062 25.214844 Z M 11.039062 23.722656 " fill-opacity="1" fill-rule="nonzero"/><path fill="#36352a" d="M 14.769531 25.214844 C 14.769531 25.421875 14.84375 25.597656 14.988281 25.742188 C 15.132812 25.886719 15.308594 25.960938 15.515625 25.960938 L 17.007812 25.960938 C 17.214844 25.960938 17.390625 25.886719 17.535156 25.742188 C 17.679688 25.597656 17.753906 25.421875 17.753906 25.214844 L 17.753906 23.722656 C 17.753906 23.515625 17.679688 23.339844 17.535156 23.195312 C 17.390625 23.050781 17.214844 22.976562 17.007812 22.976562 L 15.515625 22.976562 C 15.308594 22.976562 15.132812 23.050781 14.988281 23.195312 C 14.84375 23.339844 14.769531 23.515625 14.769531 23.722656 Z M 15.515625 23.722656 L 17.007812 23.722656 L 17.007812 25.214844 L 15.515625 25.214844 Z M 15.515625 23.722656 " fill-opacity="1" fill-rule="nonzero"/><path fill="#36352a" d="M 19.246094 25.214844 C 19.246094 25.421875 19.320312 25.597656 19.464844 25.742188 C 19.609375 25.886719 19.785156 25.960938 19.992188 25.960938 L 21.484375 25.960938 C 21.691406 25.960938 21.867188 25.886719 22.011719 25.742188 C 22.15625 25.597656 22.230469 25.421875 22.230469 25.214844 L 22.230469 23.722656 C 22.230469 23.515625 22.15625 23.339844 22.011719 23.195312 C 21.867188 23.050781 21.691406 22.976562 21.484375 22.976562 L 19.992188 22.976562 C 19.785156 22.976562 19.609375 23.050781 19.464844 23.195312 C 19.320312 23.339844 19.246094 23.515625 19.246094 23.722656 Z M 19.992188 23.722656 L 21.484375 23.722656 L 21.484375 25.214844 L 19.992188 25.214844 Z M 19.992188 23.722656 " fill-opacity="1" fill-rule="nonzero"/><g clip-path="url(#6ddc372231)"><path fill="#36352a" d="M 26.707031 8.800781 L 25.589844 8.800781 L 25.589844 8.613281 C 25.589844 8.441406 25.554688 8.273438 25.488281 8.113281 C 25.421875 7.953125 25.328125 7.8125 25.207031 7.691406 C 25.082031 7.566406 24.941406 7.472656 24.78125 7.40625 C 24.621094 7.339844 24.457031 7.308594 24.28125 7.308594 C 24.109375 7.308594 23.941406 7.339844 23.78125 7.40625 C 23.621094 7.472656 23.480469 7.566406 23.359375 7.691406 C 23.238281 7.8125 23.144531 7.953125 23.078125 8.113281 C 23.011719 8.273438 22.976562 8.441406 22.976562 8.613281 L 22.976562 8.800781 L 19.804688 8.800781 L 19.804688 8.613281 C 19.804688 8.441406 19.773438 8.273438 19.707031 8.113281 C 19.640625 7.953125 19.546875 7.8125 19.421875 7.691406 C 19.300781 7.566406 19.160156 7.472656 19 7.40625 C 18.839844 7.339844 18.671875 7.308594 18.5 7.308594 C 18.328125 7.308594 18.160156 7.339844 18 7.40625 C 17.839844 7.472656 17.699219 7.566406 17.578125 7.691406 C 17.453125 7.8125 17.359375 7.953125 17.292969 8.113281 C 17.226562 8.273438 17.195312 8.441406 17.195312 8.613281 L 17.195312 8.800781 L 14.023438 8.800781 L 14.023438 8.613281 C 14.023438 8.441406 13.992188 8.273438 13.925781 8.113281 C 13.859375 7.953125 13.761719 7.8125 13.640625 7.691406 C 13.519531 7.566406 13.378906 7.472656 13.21875 7.40625 C 13.058594 7.339844 12.890625 7.308594 12.71875 7.308594 C 12.542969 7.308594 12.378906 7.339844 12.21875 7.40625 C 12.058594 7.472656 11.917969 7.566406 11.792969 7.691406 C 11.671875 7.8125 11.578125 7.953125 11.511719 8.113281 C 11.445312 8.273438 11.410156 8.441406 11.410156 8.613281 L 11.410156 8.800781 L 10.292969 8.800781 C 10.046875 8.800781 9.808594 8.847656 9.578125 8.941406 C 9.351562 9.039062 9.148438 9.171875 8.972656 9.347656 C 8.800781 9.523438 8.664062 9.722656 8.570312 9.953125 C 8.476562 10.179688 8.429688 10.417969 8.425781 10.664062 L 8.425781 22.230469 C 8.425781 22.332031 8.464844 22.421875 8.535156 22.496094 C 8.609375 22.566406 8.699219 22.605469 8.800781 22.605469 C 8.902344 22.605469 8.992188 22.566406 9.0625 22.496094 C 9.136719 22.421875 9.171875 22.332031 9.171875 22.230469 L 9.171875 14.023438 L 27.828125 14.023438 L 27.828125 22.976562 C 27.828125 23.078125 27.789062 23.167969 27.71875 23.242188 C 27.644531 23.3125 27.558594 23.351562 27.453125 23.351562 L 25.589844 23.351562 C 25.339844 23.351562 25.101562 23.398438 24.875 23.492188 C 24.648438 23.585938 24.445312 23.722656 24.269531 23.898438 C 24.09375 24.070312 23.960938 24.273438 23.867188 24.5 C 23.769531 24.730469 23.722656 24.96875 23.722656 25.214844 L 23.722656 27.082031 C 23.722656 27.183594 23.6875 27.273438 23.613281 27.34375 C 23.539062 27.417969 23.453125 27.453125 23.351562 27.453125 L 10.292969 27.429688 C 10.144531 27.429688 10 27.402344 9.863281 27.34375 C 9.726562 27.289062 9.605469 27.207031 9.5 27.101562 C 9.394531 26.996094 9.316406 26.878906 9.257812 26.738281 C 9.203125 26.601562 9.171875 26.460938 9.171875 26.3125 L 9.171875 25.214844 C 9.171875 25.113281 9.136719 25.023438 9.0625 24.953125 C 8.992188 24.878906 8.902344 24.84375 8.800781 24.84375 C 8.699219 24.84375 8.609375 24.878906 8.535156 24.953125 C 8.464844 25.023438 8.425781 25.113281 8.425781 25.214844 L 8.425781 27.828125 C 8.429688 28.074219 8.476562 28.3125 8.570312 28.539062 C 8.664062 28.769531 8.800781 28.96875 8.972656 29.144531 C 9.148438 29.320312 9.351562 29.453125 9.578125 29.550781 C 9.808594 29.644531 10.046875 29.691406 10.292969 29.691406 L 26.707031 29.691406 C 26.953125 29.691406 27.191406 29.644531 27.421875 29.550781 C 27.648438 29.453125 27.851562 29.320312 28.027344 29.144531 C 28.199219 28.96875 28.335938 28.769531 28.429688 28.539062 C 28.523438 28.3125 28.574219 28.074219 28.574219 27.828125 L 28.574219 10.664062 C 28.574219 10.417969 28.523438 10.179688 28.429688 9.953125 C 28.335938 9.722656 28.199219 9.523438 28.027344 9.347656 C 27.851562 9.171875 27.648438 9.039062 27.421875 8.941406 C 27.191406 8.847656 26.953125 8.800781 26.707031 8.800781 Z M 23.722656 8.613281 C 23.722656 8.460938 23.777344 8.328125 23.886719 8.21875 C 23.996094 8.109375 24.128906 8.054688 24.28125 8.054688 C 24.4375 8.054688 24.570312 8.109375 24.679688 8.21875 C 24.789062 8.328125 24.84375 8.460938 24.84375 8.613281 L 24.84375 10.105469 C 24.84375 10.261719 24.789062 10.390625 24.679688 10.5 C 24.570312 10.609375 24.4375 10.664062 24.28125 10.664062 C 24.128906 10.664062 23.996094 10.609375 23.886719 10.5 C 23.777344 10.390625 23.722656 10.261719 23.722656 10.105469 Z M 17.941406 8.613281 C 17.941406 8.460938 17.996094 8.328125 18.105469 8.21875 C 18.214844 8.109375 18.34375 8.054688 18.5 8.054688 C 18.65625 8.054688 18.785156 8.109375 18.894531 8.21875 C 19.003906 8.328125 19.058594 8.460938 19.058594 8.613281 L 19.058594 10.105469 C 19.058594 10.261719 19.003906 10.390625 18.894531 10.5 C 18.785156 10.609375 18.65625 10.664062 18.5 10.664062 C 18.34375 10.664062 18.214844 10.609375 18.105469 10.5 C 17.996094 10.390625 17.941406 10.261719 17.941406 10.105469 Z M 12.15625 8.613281 C 12.15625 8.460938 12.210938 8.328125 12.320312 8.21875 C 12.429688 8.109375 12.5625 8.054688 12.71875 8.054688 C 12.871094 8.054688 13.003906 8.109375 13.113281 8.21875 C 13.222656 8.328125 13.277344 8.460938 13.277344 8.613281 L 13.277344 10.105469 C 13.277344 10.261719 13.222656 10.390625 13.113281 10.5 C 13.003906 10.609375 12.871094 10.664062 12.71875 10.664062 C 12.5625 10.664062 12.429688 10.609375 12.320312 10.5 C 12.210938 10.390625 12.15625 10.261719 12.15625 10.105469 Z M 9.171875 13.277344 L 9.171875 10.664062 C 9.171875 10.515625 9.203125 10.375 9.257812 10.238281 C 9.316406 10.101562 9.394531 9.980469 9.5 9.875 C 9.605469 9.769531 9.726562 9.6875 9.863281 9.632812 C 10 9.574219 10.144531 9.546875 10.292969 9.546875 L 11.410156 9.546875 L 11.410156 10.105469 C 11.410156 10.277344 11.445312 10.445312 11.511719 10.605469 C 11.578125 10.765625 11.671875 10.90625 11.792969 11.03125 C 11.917969 11.152344 12.058594 11.246094 12.21875 11.3125 C 12.378906 11.378906 12.542969 11.410156 12.71875 11.410156 C 12.890625 11.410156 13.058594 11.378906 13.21875 11.3125 C 13.378906 11.246094 13.519531 11.152344 13.640625 11.03125 C 13.761719 10.90625 13.859375 10.765625 13.925781 10.605469 C 13.992188 10.445312 14.023438 10.277344 14.023438 10.105469 L 14.023438 9.546875 L 17.195312 9.546875 L 17.195312 10.105469 C 17.195312 10.277344 17.226562 10.445312 17.292969 10.605469 C 17.359375 10.765625 17.453125 10.90625 17.578125 11.03125 C 17.699219 11.152344 17.839844 11.246094 18 11.3125 C 18.160156 11.378906 18.328125 11.410156 18.5 11.410156 C 18.671875 11.410156 18.839844 11.378906 19 11.3125 C 19.160156 11.246094 19.300781 11.152344 19.421875 11.03125 C 19.546875 10.90625 19.640625 10.765625 19.707031 10.605469 C 19.773438 10.445312 19.804688 10.277344 19.804688 10.105469 L 19.804688 9.546875 L 22.976562 9.546875 L 22.976562 10.105469 C 22.976562 10.277344 23.011719 10.445312 23.078125 10.605469 C 23.144531 10.765625 23.238281 10.90625 23.359375 11.03125 C 23.480469 11.152344 23.621094 11.246094 23.78125 11.3125 C 23.941406 11.378906 24.109375 11.410156 24.28125 11.410156 C 24.457031 11.410156 24.621094 11.378906 24.78125 11.3125 C 24.941406 11.246094 25.082031 11.152344 25.207031 11.03125 C 25.328125 10.90625 25.421875 10.765625 25.488281 10.605469 C 25.554688 10.445312 25.589844 10.277344 25.589844 10.105469 L 25.589844 9.546875 L 26.707031 9.546875 C 26.855469 9.546875 27 9.574219 27.136719 9.632812 C 27.273438 9.6875 27.394531 9.769531 27.5 9.875 C 27.605469 9.980469 27.683594 10.101562 27.742188 10.238281 C 27.796875 10.375 27.828125 10.515625 27.828125 10.664062 L 27.828125 13.277344 Z M 24.46875 25.214844 C 24.46875 25.066406 24.496094 24.925781 24.554688 24.785156 C 24.609375 24.648438 24.691406 24.527344 24.796875 24.425781 C 24.902344 24.320312 25.023438 24.238281 25.160156 24.179688 C 25.296875 24.125 25.441406 24.097656 25.589844 24.097656 L 27.300781 24.097656 L 24.46875 26.925781 Z M 26.707031 28.945312 L 10.292969 28.945312 C 10.140625 28.945312 9.996094 28.914062 9.855469 28.855469 C 9.71875 28.796875 9.597656 28.714844 9.492188 28.605469 C 9.386719 28.496094 9.304688 28.371094 9.25 28.230469 C 9.195312 28.089844 9.167969 27.945312 9.171875 27.792969 C 9.503906 28.046875 9.875 28.175781 10.289062 28.175781 L 23.472656 28.199219 C 23.992188 28.199219 24.433594 28.015625 24.800781 27.652344 L 27.828125 24.625 L 27.828125 27.828125 C 27.828125 27.976562 27.796875 28.117188 27.742188 28.253906 C 27.683594 28.390625 27.605469 28.511719 27.5 28.617188 C 27.394531 28.722656 27.273438 28.804688 27.136719 28.859375 C 27 28.917969 26.855469 28.945312 26.707031 28.945312 Z M 26.707031 28.945312 " fill-opacity="1" fill-rule="nonzero"/></g><g clip-path="url(#a5fbe13649)"><path fill="#36352a" d="M 9.171875 23.722656 C 9.171875 23.824219 9.136719 23.914062 9.0625 23.988281 C 8.992188 24.058594 8.902344 24.097656 8.800781 24.097656 C 8.699219 24.097656 8.609375 24.058594 8.535156 23.988281 C 8.464844 23.914062 8.425781 23.824219 8.425781 23.722656 C 8.425781 23.621094 8.464844 23.53125 8.535156 23.460938 C 8.609375 23.386719 8.699219 23.351562 8.800781 23.351562 C 8.902344 23.351562 8.992188 23.386719 9.0625 23.460938 C 9.136719 23.53125 9.171875 23.621094 9.171875 23.722656 Z M 9.171875 23.722656 " fill-opacity="1" fill-rule="nonzero"/></g></svg>