<svg xmlns="http://www.w3.org/2000/svg" xmlns:xlink="http://www.w3.org/1999/xlink" width="50" zoomAndPan="magnify" viewBox="0 0 37.5 37.499999" height="50" preserveAspectRatio="xMidYMid meet" version="1.0"><defs><clipPath id="710f42ec63"><path d="M 0 15 L 32 15 L 32 34.808594 L 0 34.808594 Z M 0 15 " clip-rule="nonzero"/></clipPath></defs><path fill="#36352a" d="M 15.585938 21.351562 C 15.019531 21.351562 14.5625 21.808594 14.5625 22.375 L 14.5625 23.035156 C 14.5625 24.671875 15.847656 26.015625 17.460938 26.117188 L 17.460938 27.222656 C 17.460938 27.785156 17.917969 28.242188 18.484375 28.242188 C 19.046875 28.242188 19.503906 27.785156 19.503906 27.222656 L 19.503906 26.117188 C 21.117188 26.015625 22.402344 24.675781 22.402344 23.035156 L 22.402344 21.625 C 22.402344 20.691406 21.804688 19.800781 20.71875 19.117188 C 20.664062 19.082031 20.605469 19.054688 20.542969 19.027344 L 20.34375 18.953125 C 20.320312 18.941406 20.296875 18.925781 20.273438 18.917969 L 18.320312 18.167969 L 17.539062 17.867188 C 17.53125 17.863281 17.519531 17.859375 17.511719 17.855469 L 17.222656 17.746094 C 16.839844 17.492188 16.605469 17.226562 16.605469 17.046875 L 16.605469 15.640625 C 16.605469 15.0625 17.074219 14.59375 17.652344 14.59375 L 19.316406 14.59375 C 19.890625 14.59375 20.359375 15.0625 20.359375 15.640625 L 20.359375 16.296875 C 20.359375 16.859375 20.816406 17.316406 21.378906 17.316406 C 21.945312 17.316406 22.402344 16.859375 22.402344 16.296875 L 22.402344 15.640625 C 22.402344 14 21.117188 12.660156 19.503906 12.558594 L 19.503906 11.382812 C 19.503906 10.816406 19.046875 10.359375 18.484375 10.359375 C 17.917969 10.359375 17.460938 10.816406 17.460938 11.382812 L 17.460938 12.558594 C 15.847656 12.660156 14.5625 14 14.5625 15.640625 L 14.5625 17.046875 C 14.5625 17.703125 14.847656 18.664062 16.210938 19.527344 C 16.269531 19.5625 16.328125 19.59375 16.390625 19.617188 L 17.605469 20.082031 L 19.707031 20.894531 C 20.15625 21.191406 20.359375 21.476562 20.359375 21.625 L 20.359375 23.035156 C 20.359375 23.613281 19.890625 24.082031 19.316406 24.082031 L 17.65625 24.082031 C 17.078125 24.082031 16.605469 23.613281 16.605469 23.035156 L 16.605469 22.375 C 16.605469 21.808594 16.148438 21.351562 15.585938 21.351562 Z M 15.585938 21.351562 " fill-opacity="1" fill-rule="nonzero"/><g clip-path="url(#710f42ec63)"><path fill="#36352a" d="M 30.933594 26.398438 C 30.460938 26.085938 29.828125 26.21875 29.519531 26.691406 C 26.09375 31.917969 19.363281 34.105469 13.515625 31.894531 C 8.246094 29.902344 4.804688 24.757812 4.824219 19.234375 L 6.503906 21.78125 C 6.703125 22.078125 7.027344 22.242188 7.359375 22.242188 C 7.550781 22.242188 7.746094 22.1875 7.921875 22.070312 C 8.390625 21.761719 8.519531 21.128906 8.210938 20.65625 L 5.246094 16.164062 C 5.0625 15.886719 4.753906 15.71875 4.421875 15.707031 C 4.097656 15.699219 3.773438 15.847656 3.574219 16.113281 L 3.316406 16.457031 C 3.179688 16.566406 3.070312 16.710938 3 16.878906 L 0.371094 20.371094 C 0.03125 20.820312 0.121094 21.460938 0.574219 21.800781 C 1.023438 22.140625 1.664062 22.050781 2.003906 21.597656 L 2.828125 20.5 C 3.300781 26.367188 7.132812 31.664062 12.792969 33.804688 C 14.558594 34.472656 16.390625 34.792969 18.207031 34.792969 C 23.328125 34.792969 28.3125 32.253906 31.226562 27.8125 C 31.535156 27.339844 31.40625 26.707031 30.933594 26.398438 Z M 30.933594 26.398438 " fill-opacity="1" fill-rule="nonzero"/></g><path fill="#36352a" d="M 36.398438 17.402344 C 35.949219 17.0625 35.308594 17.148438 34.96875 17.59375 L 33.765625 19.164062 C 33.699219 12.882812 29.757812 7.066406 23.757812 4.796875 C 17.023438 2.253906 9.269531 4.773438 5.324219 10.792969 C 5.015625 11.261719 5.144531 11.898438 5.617188 12.207031 C 6.089844 12.515625 6.722656 12.382812 7.03125 11.914062 C 10.460938 6.6875 17.191406 4.5 23.035156 6.710938 C 28.28125 8.691406 31.714844 13.800781 31.726562 19.300781 L 30.46875 17.363281 C 30.164062 16.890625 29.53125 16.757812 29.058594 17.0625 C 28.585938 17.371094 28.449219 18.003906 28.757812 18.476562 L 31.691406 22.996094 C 31.871094 23.277344 32.175781 23.449219 32.507812 23.460938 C 32.523438 23.464844 32.535156 23.464844 32.550781 23.464844 C 32.867188 23.464844 33.167969 23.316406 33.359375 23.0625 L 36.589844 18.835938 C 36.933594 18.386719 36.847656 17.746094 36.398438 17.402344 Z M 36.398438 17.402344 " fill-opacity="1" fill-rule="nonzero"/></svg>