<svg xmlns="http://www.w3.org/2000/svg" xmlns:xlink="http://www.w3.org/1999/xlink" width="50" zoomAndPan="magnify" viewBox="0 0 37.5 37.499999" height="50" preserveAspectRatio="xMidYMid meet" version="1.0"><defs><clipPath id="f280fef927"><path d="M 3 5 L 9 5 L 9 13.777344 L 3 13.777344 Z M 3 5 " clip-rule="nonzero"/></clipPath><clipPath id="60dc6629d1"><path d="M 8 3.441406 L 10 3.441406 L 10 5 L 8 5 Z M 8 3.441406 " clip-rule="nonzero"/></clipPath><clipPath id="8792631889"><path d="M 16 8 L 18.234375 8 L 18.234375 9 L 16 9 Z M 16 8 " clip-rule="nonzero"/></clipPath><clipPath id="0f6b517045"><path d="M 11.207031 20 L 29.441406 20 L 29.441406 33.570312 L 11.207031 33.570312 Z M 11.207031 20 " clip-rule="nonzero"/></clipPath><clipPath id="1757bcf4ef"><path d="M 21.820312 3.859375 L 37 3.859375 L 37 13.808594 L 21.820312 13.808594 Z M 21.820312 3.859375 " clip-rule="nonzero"/></clipPath></defs><path fill="#36352a" d="M 0.0390625 11.117188 C 0.03125 11.117188 0.0234375 11.121094 0.015625 11.121094 C 0.015625 11.121094 0.0117188 11.113281 0.0117188 11.105469 C 0.0195312 11.105469 0.0234375 11.101562 0.03125 11.105469 C 0.03125 11.105469 0.0351562 11.113281 0.0390625 11.117188 Z M 0.0390625 11.117188 " fill-opacity="1" fill-rule="nonzero"/><path fill="#33322c" d="M 8.601562 7.335938 C 8.578125 7.328125 8.550781 7.316406 8.527344 7.308594 C 8.53125 7.304688 8.53125 7.296875 8.53125 7.292969 C 8.558594 7.296875 8.585938 7.304688 8.609375 7.3125 C 8.609375 7.316406 8.605469 7.328125 8.601562 7.335938 Z M 8.601562 7.335938 " fill-opacity="1" fill-rule="nonzero"/><path fill="#33322c" d="M 13.257812 9.71875 C 13.175781 9.90625 13.101562 10.082031 13.03125 10.257812 C 12.765625 10.921875 12.417969 11.539062 12.03125 12.132812 C 11.980469 12.207031 11.925781 12.277344 11.863281 12.339844 C 11.710938 12.507812 11.441406 12.558594 11.234375 12.464844 C 11.160156 12.429688 11.128906 12.394531 11.140625 12.308594 C 11.15625 12.214844 11.179688 12.125 11.207031 12.035156 C 11.363281 11.582031 11.5625 11.144531 11.765625 10.710938 C 12.074219 10.066406 12.375 9.414062 12.675781 8.765625 C 12.6875 8.746094 12.683594 8.707031 12.667969 8.6875 C 12.230469 7.882812 11.789062 7.082031 11.351562 6.285156 C 11.277344 6.15625 11.21875 6.019531 11.15625 5.886719 C 11.148438 5.871094 11.140625 5.851562 11.132812 5.832031 C 11.066406 5.65625 11.109375 5.582031 11.296875 5.570312 C 11.441406 5.5625 11.566406 5.609375 11.667969 5.707031 C 11.777344 5.820312 11.886719 5.941406 11.984375 6.066406 C 12.390625 6.59375 12.78125 7.136719 13.144531 7.691406 C 13.152344 7.710938 13.164062 7.722656 13.179688 7.746094 C 13.195312 7.71875 13.203125 7.703125 13.214844 7.683594 C 13.53125 7.070312 13.847656 6.457031 14.171875 5.847656 C 14.28125 5.636719 14.417969 5.4375 14.542969 5.230469 C 14.566406 5.195312 14.59375 5.160156 14.621094 5.128906 C 14.710938 5.023438 14.824219 5.011719 14.949219 5.050781 C 15.027344 5.078125 15.0625 5.136719 15.042969 5.222656 C 15.007812 5.367188 14.96875 5.515625 14.921875 5.652344 C 14.585938 6.628906 14.179688 7.574219 13.765625 8.515625 C 13.746094 8.558594 13.75 8.589844 13.773438 8.628906 C 14.316406 9.46875 14.855469 10.308594 15.394531 11.144531 C 15.558594 11.398438 15.730469 11.644531 15.886719 11.898438 C 15.964844 12.023438 16.023438 12.164062 16.074219 12.304688 C 16.144531 12.496094 16.085938 12.609375 15.894531 12.675781 C 15.617188 12.769531 15.171875 12.773438 14.910156 12.394531 C 14.78125 12.207031 14.660156 12.011719 14.542969 11.816406 C 14.140625 11.167969 13.742188 10.515625 13.34375 9.863281 C 13.3125 9.824219 13.289062 9.777344 13.257812 9.71875 Z M 13.257812 9.71875 " fill-opacity="1" fill-rule="nonzero"/><g clip-path="url(#f280fef927)"><path fill="#33322c" d="M 4.558594 6.777344 C 4.652344 6.644531 4.734375 6.507812 4.835938 6.382812 C 5.210938 5.9375 5.671875 5.632812 6.230469 5.539062 C 6.679688 5.464844 7.105469 5.535156 7.472656 5.847656 C 7.632812 5.984375 7.75 6.15625 7.847656 6.347656 C 8.046875 6.738281 8.136719 7.160156 8.140625 7.605469 C 8.148438 8.472656 7.914062 9.253906 7.46875 9.972656 C 7.289062 10.265625 7.089844 10.546875 6.820312 10.757812 C 6.371094 11.109375 5.871094 11.320312 5.304688 11.316406 C 5.222656 11.316406 5.144531 11.296875 5.066406 11.273438 C 5.019531 11.261719 4.976562 11.234375 4.9375 11.207031 C 4.863281 11.148438 4.859375 11.078125 4.929688 11.015625 C 4.964844 10.984375 5 10.960938 5.039062 10.941406 C 5.144531 10.886719 5.25 10.835938 5.355469 10.792969 C 5.695312 10.648438 5.984375 10.433594 6.222656 10.140625 C 6.796875 9.4375 7.191406 8.644531 7.347656 7.726562 C 7.425781 7.285156 7.421875 6.847656 7.257812 6.425781 C 7.1875 6.234375 7.085938 6.0625 6.925781 5.933594 C 6.742188 5.789062 6.542969 5.742188 6.324219 5.8125 C 5.832031 5.976562 5.445312 6.289062 5.152344 6.738281 C 4.941406 7.0625 4.820312 7.425781 4.722656 7.804688 C 4.675781 7.964844 4.695312 8.125 4.703125 8.285156 C 4.761719 9.222656 4.765625 10.160156 4.753906 11.09375 C 4.746094 11.53125 4.75 11.964844 4.730469 12.398438 C 4.71875 12.78125 4.6875 13.160156 4.664062 13.539062 C 4.660156 13.632812 4.613281 13.691406 4.535156 13.71875 C 4.382812 13.773438 4.226562 13.773438 4.074219 13.714844 C 4.003906 13.6875 3.964844 13.636719 3.957031 13.550781 C 3.882812 12.636719 3.816406 11.722656 3.820312 10.804688 C 3.824219 9.855469 3.8125 8.910156 3.816406 7.960938 C 3.820312 7.546875 3.839844 7.132812 3.859375 6.71875 C 3.863281 6.601562 3.886719 6.484375 3.902344 6.367188 C 3.917969 6.28125 3.96875 6.222656 4.050781 6.214844 C 4.125 6.203125 4.199219 6.203125 4.273438 6.210938 C 4.351562 6.21875 4.410156 6.277344 4.4375 6.351562 C 4.480469 6.472656 4.511719 6.597656 4.550781 6.722656 C 4.550781 6.742188 4.554688 6.761719 4.558594 6.777344 Z M 4.558594 6.777344 " fill-opacity="1" fill-rule="nonzero"/></g><path fill="#33322c" d="M 9.984375 9.183594 C 10.015625 10.082031 10.003906 10.980469 9.941406 11.878906 C 9.929688 12.039062 9.890625 12.195312 9.859375 12.351562 C 9.824219 12.535156 9.703125 12.632812 9.519531 12.65625 C 9.382812 12.675781 9.25 12.675781 9.113281 12.632812 C 9.007812 12.59375 8.941406 12.523438 8.921875 12.410156 C 8.878906 12.175781 8.882812 11.941406 8.890625 11.710938 C 8.914062 11.09375 8.9375 10.472656 8.957031 9.855469 C 8.980469 9.25 8.996094 8.640625 9.027344 8.035156 C 9.054688 7.4375 9.09375 6.84375 9.132812 6.25 C 9.148438 6.03125 9.175781 5.8125 9.203125 5.597656 C 9.222656 5.441406 9.289062 5.382812 9.421875 5.367188 C 9.582031 5.351562 9.695312 5.40625 9.738281 5.546875 C 9.785156 5.699219 9.824219 5.855469 9.835938 6.015625 C 9.875 6.523438 9.902344 7.03125 9.925781 7.542969 C 9.953125 8.089844 9.96875 8.636719 9.984375 9.183594 Z M 9.984375 9.183594 " fill-opacity="1" fill-rule="nonzero"/><g clip-path="url(#60dc6629d1)"><path fill="#33322c" d="M 9.828125 4.132812 C 9.824219 4.167969 9.824219 4.203125 9.820312 4.238281 C 9.789062 4.480469 9.683594 4.589844 9.441406 4.621094 C 9.292969 4.644531 9.148438 4.632812 9.03125 4.527344 C 9.007812 4.5 8.976562 4.472656 8.960938 4.441406 C 8.851562 4.21875 8.8125 3.988281 8.898438 3.746094 C 8.933594 3.636719 9.007812 3.570312 9.117188 3.546875 C 9.570312 3.441406 9.824219 3.773438 9.828125 4.132812 Z M 9.828125 4.132812 " fill-opacity="1" fill-rule="nonzero"/></g><path fill="#36352a" d="M 15.867188 7.492188 C 16.023438 7.414062 16.167969 7.332031 16.3125 7.238281 C 16.449219 7.144531 16.582031 7.042969 16.710938 6.941406 C 16.984375 6.734375 17.253906 6.523438 17.496094 6.285156 C 17.617188 6.167969 17.460938 5.960938 17.316406 6.050781 C 17.03125 6.234375 16.757812 6.445312 16.488281 6.65625 C 16.359375 6.757812 16.226562 6.855469 16.097656 6.964844 C 15.96875 7.074219 15.851562 7.191406 15.730469 7.316406 C 15.644531 7.410156 15.753906 7.546875 15.867188 7.492188 Z M 15.867188 7.492188 " fill-opacity="1" fill-rule="nonzero"/><g clip-path="url(#8792631889)"><path fill="#36352a" d="M 16.386719 8.652344 C 16.65625 8.675781 16.929688 8.699219 17.199219 8.71875 C 17.464844 8.738281 17.746094 8.785156 18.011719 8.753906 C 18.152344 8.738281 18.195312 8.546875 18.046875 8.496094 C 17.785156 8.414062 17.488281 8.417969 17.21875 8.410156 C 16.9375 8.398438 16.664062 8.398438 16.386719 8.417969 C 16.238281 8.429688 16.242188 8.636719 16.386719 8.652344 Z M 16.386719 8.652344 " fill-opacity="1" fill-rule="nonzero"/></g><path fill="#36352a" d="M 16.378906 9.792969 C 16.644531 10.09375 17.035156 10.296875 17.410156 10.4375 C 17.59375 10.507812 17.695312 10.226562 17.539062 10.128906 C 17.371094 10.023438 17.199219 9.933594 17.023438 9.84375 C 16.847656 9.753906 16.671875 9.671875 16.476562 9.625 C 16.375 9.597656 16.3125 9.71875 16.378906 9.792969 Z M 16.378906 9.792969 " fill-opacity="1" fill-rule="nonzero"/><path fill="#36352a" d="M 2.589844 7.820312 C 2.386719 7.65625 2.179688 7.5 1.96875 7.347656 C 1.867188 7.273438 1.761719 7.203125 1.65625 7.136719 C 1.542969 7.066406 1.421875 7.015625 1.304688 6.957031 C 1.210938 6.914062 1.101562 6.925781 1.039062 7.011719 C 0.984375 7.082031 0.972656 7.214844 1.054688 7.277344 C 1.164062 7.363281 1.269531 7.457031 1.386719 7.53125 C 1.492188 7.601562 1.601562 7.660156 1.710938 7.71875 C 1.9375 7.84375 2.164062 7.960938 2.398438 8.070312 C 2.472656 8.101562 2.554688 8.09375 2.601562 8.027344 C 2.648438 7.96875 2.652344 7.871094 2.589844 7.820312 Z M 2.589844 7.820312 " fill-opacity="1" fill-rule="nonzero"/><path fill="#36352a" d="M 2.203125 9.136719 C 1.976562 9.054688 1.730469 9.023438 1.492188 8.992188 C 1.257812 8.960938 1.019531 8.933594 0.785156 8.910156 C 0.667969 8.902344 0.566406 9.019531 0.566406 9.128906 C 0.566406 9.257812 0.667969 9.335938 0.785156 9.347656 C 1.019531 9.371094 1.253906 9.386719 1.492188 9.402344 C 1.730469 9.417969 1.972656 9.425781 2.203125 9.386719 C 2.34375 9.363281 2.308594 9.175781 2.203125 9.136719 Z M 2.203125 9.136719 " fill-opacity="1" fill-rule="nonzero"/><path fill="#36352a" d="M 2.476562 10.699219 C 2.261719 10.675781 2.027344 10.761719 1.828125 10.828125 C 1.605469 10.90625 1.390625 10.988281 1.179688 11.089844 C 0.921875 11.214844 1.101562 11.65625 1.375 11.558594 C 1.597656 11.476562 1.804688 11.378906 2.015625 11.273438 C 2.203125 11.183594 2.429688 11.074219 2.558594 10.902344 C 2.628906 10.816406 2.585938 10.710938 2.476562 10.699219 Z M 2.476562 10.699219 " fill-opacity="1" fill-rule="nonzero"/><g clip-path="url(#0f6b517045)"><path fill="#33322c" d="M 29.324219 29.292969 L 28.1875 23.550781 C 28.101562 23.121094 27.855469 22.746094 27.488281 22.503906 C 27.121094 22.257812 26.683594 22.171875 26.25 22.257812 L 26.125 22.28125 L 25.761719 21.160156 C 25.484375 20.296875 24.554688 19.820312 23.691406 20.097656 L 12.402344 23.738281 C 11.984375 23.875 11.644531 24.164062 11.445312 24.554688 C 11.246094 24.945312 11.207031 25.394531 11.34375 25.8125 L 13.140625 31.382812 C 13.347656 32.023438 13.910156 32.449219 14.542969 32.511719 C 14.789062 33.152344 15.40625 33.566406 16.078125 33.566406 C 16.183594 33.566406 16.292969 33.554688 16.398438 33.535156 L 28.03125 31.226562 C 28.464844 31.144531 28.835938 30.894531 29.082031 30.527344 C 29.324219 30.164062 29.410156 29.722656 29.324219 29.292969 Z M 26.292969 22.464844 C 26.671875 22.394531 27.050781 22.46875 27.371094 22.679688 C 27.6875 22.894531 27.90625 23.21875 27.976562 23.59375 L 28.101562 24.21875 L 26.832031 24.472656 L 26.195312 22.488281 Z M 11.546875 25.746094 C 11.425781 25.382812 11.460938 24.992188 11.632812 24.652344 C 11.808594 24.3125 12.105469 24.058594 12.46875 23.941406 L 23.757812 20.300781 C 23.90625 20.253906 24.050781 20.230469 24.195312 20.230469 C 24.800781 20.230469 25.367188 20.621094 25.5625 21.226562 L 25.757812 21.832031 L 11.746094 26.367188 Z M 14.714844 32.308594 C 14.695312 32.308594 14.671875 32.308594 14.652344 32.304688 C 14.648438 32.304688 14.648438 32.304688 14.648438 32.304688 C 14.066406 32.28125 13.53125 31.902344 13.339844 31.3125 L 12.304688 28.105469 L 26.316406 23.570312 L 27.355469 26.792969 C 27.367188 26.828125 27.378906 26.863281 27.386719 26.898438 C 27.390625 26.910156 27.390625 26.921875 27.394531 26.933594 C 27.398438 26.9375 27.398438 26.945312 27.398438 26.949219 C 27.402344 26.96875 27.40625 26.988281 27.410156 27.007812 C 27.511719 27.644531 27.167969 28.28125 26.574219 28.542969 C 26.570312 28.542969 26.570312 28.546875 26.570312 28.546875 C 26.550781 28.554688 26.535156 28.5625 26.515625 28.566406 C 26.511719 28.570312 26.507812 28.570312 26.5 28.574219 C 26.484375 28.578125 26.472656 28.582031 26.457031 28.589844 C 26.449219 28.589844 26.441406 28.59375 26.433594 28.597656 L 15.140625 32.234375 C 15.121094 32.242188 15.097656 32.25 15.074219 32.253906 C 15.070312 32.257812 15.0625 32.257812 15.058594 32.257812 C 15.039062 32.261719 15.023438 32.265625 15.007812 32.269531 C 15 32.273438 14.992188 32.273438 14.988281 32.273438 C 14.96875 32.277344 14.953125 32.28125 14.9375 32.285156 C 14.929688 32.285156 14.925781 32.285156 14.917969 32.285156 C 14.902344 32.289062 14.882812 32.292969 14.867188 32.292969 C 14.863281 32.292969 14.859375 32.296875 14.851562 32.296875 C 14.832031 32.296875 14.8125 32.300781 14.796875 32.300781 C 14.792969 32.300781 14.789062 32.300781 14.785156 32.300781 C 14.765625 32.300781 14.742188 32.300781 14.722656 32.300781 C 14.722656 32.308594 14.71875 32.308594 14.714844 32.308594 Z M 28.902344 30.410156 C 28.6875 30.726562 28.363281 30.945312 27.988281 31.015625 L 16.355469 33.324219 C 15.699219 33.453125 15.046875 33.113281 14.773438 32.519531 C 14.816406 32.515625 14.855469 32.511719 14.894531 32.507812 C 14.914062 32.507812 14.933594 32.503906 14.953125 32.5 C 14.957031 32.5 14.960938 32.5 14.964844 32.5 C 14.980469 32.496094 14.996094 32.492188 15.011719 32.492188 C 15.019531 32.488281 15.023438 32.488281 15.03125 32.488281 C 15.042969 32.484375 15.058594 32.480469 15.074219 32.476562 C 15.078125 32.476562 15.085938 32.476562 15.089844 32.472656 C 15.105469 32.46875 15.121094 32.464844 15.132812 32.464844 C 15.140625 32.460938 15.144531 32.460938 15.148438 32.460938 C 15.167969 32.453125 15.1875 32.449219 15.210938 32.441406 L 26.5 28.800781 C 26.523438 28.792969 26.550781 28.785156 26.574219 28.773438 C 26.574219 28.773438 26.578125 28.773438 26.578125 28.773438 C 26.601562 28.765625 26.621094 28.753906 26.644531 28.746094 C 26.648438 28.742188 26.652344 28.742188 26.65625 28.742188 C 26.675781 28.734375 26.695312 28.722656 26.710938 28.714844 C 26.722656 28.710938 26.730469 28.707031 26.738281 28.703125 C 26.753906 28.695312 26.765625 28.691406 26.777344 28.683594 C 26.796875 28.675781 26.8125 28.664062 26.832031 28.652344 C 26.835938 28.652344 26.839844 28.648438 26.839844 28.648438 C 27.101562 28.488281 27.316406 28.261719 27.460938 27.984375 C 27.601562 27.707031 27.660156 27.40625 27.636719 27.101562 C 27.636719 27.09375 27.632812 27.085938 27.632812 27.078125 C 27.632812 27.058594 27.628906 27.042969 27.628906 27.027344 C 27.625 27.007812 27.625 26.992188 27.621094 26.972656 C 27.617188 26.964844 27.617188 26.957031 27.617188 26.953125 C 27.613281 26.929688 27.609375 26.910156 27.601562 26.886719 C 27.601562 26.886719 27.601562 26.882812 27.601562 26.878906 C 27.589844 26.828125 27.574219 26.777344 27.558594 26.726562 L 27.398438 26.21875 L 28.457031 26.007812 L 29.117188 29.332031 C 29.191406 29.707031 29.113281 30.089844 28.902344 30.410156 Z M 28.902344 30.410156 " fill-opacity="1" fill-rule="nonzero"/></g><path fill="#33322c" d="M 13.058594 28.902344 L 20.292969 26.464844 L 20.363281 26.667969 L 13.128906 29.105469 Z M 13.058594 28.902344 " fill-opacity="1" fill-rule="nonzero"/><path fill="#33322c" d="M 13.398438 29.917969 L 23.382812 26.636719 L 23.449219 26.839844 L 13.464844 30.121094 Z M 13.398438 29.917969 " fill-opacity="1" fill-rule="nonzero"/><path fill="#33322c" d="M 29 9.660156 L 28.710938 9.660156 C 28.625 9.660156 28.550781 9.628906 28.496094 9.570312 L 28.488281 9.5625 C 28.4375 9.507812 28.40625 9.4375 28.40625 9.355469 C 28.40625 9.246094 28.316406 9.15625 28.207031 9.15625 C 28.09375 9.15625 28.003906 9.246094 28.003906 9.355469 C 28.003906 9.542969 28.078125 9.714844 28.199219 9.839844 L 28.210938 9.855469 C 28.328125 9.972656 28.484375 10.046875 28.65625 10.058594 L 28.65625 10.285156 C 28.65625 10.394531 28.746094 10.484375 28.855469 10.484375 C 28.96875 10.484375 29.054688 10.394531 29.054688 10.285156 L 29.054688 10.058594 C 29.230469 10.046875 29.382812 9.972656 29.5 9.855469 C 29.628906 9.726562 29.707031 9.550781 29.707031 9.355469 C 29.707031 9.164062 29.628906 8.988281 29.5 8.859375 C 29.371094 8.730469 29.195312 8.652344 29 8.652344 L 28.710938 8.652344 C 28.625 8.652344 28.550781 8.617188 28.496094 8.5625 L 28.488281 8.554688 C 28.4375 8.5 28.40625 8.425781 28.40625 8.347656 C 28.40625 8.261719 28.4375 8.1875 28.496094 8.132812 C 28.550781 8.074219 28.625 8.042969 28.710938 8.042969 L 29 8.042969 C 29.085938 8.042969 29.164062 8.074219 29.21875 8.128906 C 29.273438 8.1875 29.308594 8.261719 29.308594 8.347656 C 29.308594 8.457031 29.394531 8.546875 29.507812 8.546875 C 29.617188 8.546875 29.707031 8.457031 29.707031 8.347656 C 29.707031 8.152344 29.628906 7.976562 29.5 7.847656 C 29.382812 7.730469 29.230469 7.65625 29.054688 7.644531 L 29.054688 7.417969 C 29.054688 7.304688 28.96875 7.21875 28.855469 7.21875 C 28.746094 7.21875 28.65625 7.304688 28.65625 7.417969 L 28.65625 7.644531 C 28.484375 7.65625 28.328125 7.730469 28.210938 7.847656 C 28.085938 7.976562 28.003906 8.152344 28.003906 8.347656 C 28.003906 8.53125 28.078125 8.703125 28.199219 8.832031 L 28.210938 8.84375 C 28.339844 8.972656 28.515625 9.050781 28.710938 9.050781 L 29.003906 9.050781 C 29.085938 9.050781 29.164062 9.085938 29.21875 9.140625 C 29.273438 9.195312 29.308594 9.273438 29.308594 9.355469 C 29.308594 9.441406 29.273438 9.515625 29.21875 9.570312 C 29.160156 9.628906 29.085938 9.660156 29 9.660156 Z M 29 9.660156 " fill-opacity="1" fill-rule="nonzero"/><path fill="#33322c" d="M 28.855469 11.390625 C 29.558594 11.390625 30.191406 11.105469 30.652344 10.644531 C 31.109375 10.1875 31.394531 9.550781 31.394531 8.851562 C 31.394531 8.152344 31.109375 7.515625 30.652344 7.058594 C 30.191406 6.597656 29.558594 6.3125 28.855469 6.3125 C 28.15625 6.3125 27.519531 6.597656 27.0625 7.058594 C 26.601562 7.515625 26.320312 8.152344 26.320312 8.851562 C 26.320312 9.550781 26.601562 10.1875 27.0625 10.644531 C 27.519531 11.105469 28.15625 11.390625 28.855469 11.390625 Z M 27.382812 7.378906 C 27.761719 7 28.28125 6.765625 28.855469 6.765625 C 29.433594 6.765625 29.953125 7 30.328125 7.378906 C 30.707031 7.753906 30.941406 8.277344 30.941406 8.851562 C 30.941406 9.425781 30.707031 9.949219 30.328125 10.324219 C 29.953125 10.703125 29.433594 10.933594 28.855469 10.933594 C 28.28125 10.933594 27.761719 10.703125 27.382812 10.324219 C 27.003906 9.949219 26.773438 9.425781 26.773438 8.851562 C 26.773438 8.277344 27.003906 7.753906 27.382812 7.378906 Z M 27.382812 7.378906 " fill-opacity="1" fill-rule="nonzero"/><g clip-path="url(#1757bcf4ef)"><path fill="#33322c" d="M 36.980469 10.726562 L 35.890625 5.449219 C 35.890625 5.414062 35.882812 5.386719 35.871094 5.359375 L 35.601562 4.058594 C 35.578125 3.9375 35.457031 3.859375 35.335938 3.882812 L 28.859375 5.222656 L 22.050781 5.222656 C 21.925781 5.222656 21.824219 5.324219 21.824219 5.449219 L 21.824219 12.253906 C 21.824219 12.378906 21.925781 12.480469 22.050781 12.480469 L 22.980469 12.480469 L 23.207031 13.570312 C 23.230469 13.691406 23.351562 13.773438 23.472656 13.746094 L 29.59375 12.480469 L 35.664062 12.480469 C 35.789062 12.480469 35.890625 12.378906 35.890625 12.253906 L 35.890625 11.179688 L 36.804688 10.992188 C 36.925781 10.96875 37.003906 10.847656 36.980469 10.726562 Z M 35.207031 4.371094 L 35.382812 5.222656 L 31.09375 5.222656 Z M 23.601562 13.257812 L 23.441406 12.480469 L 27.363281 12.480469 Z M 35.4375 12.027344 L 22.277344 12.027344 L 22.277344 5.675781 L 35.4375 5.675781 Z M 35.890625 10.71875 L 35.890625 7.683594 L 36.492188 10.59375 Z M 35.890625 10.71875 " fill-opacity="1" fill-rule="nonzero"/></g><path fill="#33322c" d="M 23.214844 7.855469 C 23.339844 7.855469 23.441406 7.753906 23.441406 7.628906 L 23.441406 6.777344 L 24.292969 6.777344 C 24.417969 6.777344 24.519531 6.675781 24.519531 6.550781 C 24.519531 6.425781 24.417969 6.324219 24.292969 6.324219 L 23.214844 6.324219 C 23.089844 6.324219 22.988281 6.425781 22.988281 6.550781 L 22.988281 7.628906 C 22.988281 7.753906 23.089844 7.855469 23.214844 7.855469 Z M 23.214844 7.855469 " fill-opacity="1" fill-rule="nonzero"/><path fill="#33322c" d="M 24.292969 10.925781 L 23.441406 10.925781 L 23.441406 10.074219 C 23.441406 9.949219 23.339844 9.847656 23.214844 9.847656 C 23.089844 9.847656 22.988281 9.949219 22.988281 10.074219 L 22.988281 11.152344 C 22.988281 11.277344 23.089844 11.378906 23.214844 11.378906 L 24.292969 11.378906 C 24.417969 11.378906 24.519531 11.277344 24.519531 11.152344 C 24.519531 11.027344 24.417969 10.925781 24.292969 10.925781 Z M 24.292969 10.925781 " fill-opacity="1" fill-rule="nonzero"/><path fill="#33322c" d="M 33.421875 6.777344 L 34.269531 6.777344 L 34.269531 7.628906 C 34.269531 7.753906 34.371094 7.855469 34.496094 7.855469 C 34.621094 7.855469 34.722656 7.753906 34.722656 7.628906 L 34.722656 6.550781 C 34.722656 6.425781 34.621094 6.324219 34.496094 6.324219 L 33.421875 6.324219 C 33.296875 6.324219 33.195312 6.425781 33.195312 6.550781 C 33.195312 6.675781 33.296875 6.777344 33.421875 6.777344 Z M 33.421875 6.777344 " fill-opacity="1" fill-rule="nonzero"/><path fill="#33322c" d="M 33.421875 11.378906 L 34.496094 11.378906 C 34.621094 11.378906 34.722656 11.277344 34.722656 11.152344 L 34.722656 10.074219 C 34.722656 9.949219 34.621094 9.847656 34.496094 9.847656 C 34.371094 9.847656 34.269531 9.949219 34.269531 10.074219 L 34.269531 10.925781 L 33.421875 10.925781 C 33.296875 10.925781 33.195312 11.027344 33.195312 11.152344 C 33.195312 11.277344 33.296875 11.378906 33.421875 11.378906 Z M 33.421875 11.378906 " fill-opacity="1" fill-rule="nonzero"/></svg>