<svg xmlns="http://www.w3.org/2000/svg" xmlns:xlink="http://www.w3.org/1999/xlink" width="500" zoomAndPan="magnify" viewBox="0 0 375 374.999991" height="500" preserveAspectRatio="xMidYMid meet" version="1.0"><defs><g/><clipPath id="ca7717f9f4"><path d="M 99.769531 99.769531 L 275.269531 99.769531 L 275.269531 275.269531 L 99.769531 275.269531 Z M 99.769531 99.769531 " clip-rule="nonzero"/></clipPath></defs><g clip-path="url(#ca7717f9f4)"><path fill="#e1b71a" d="M 275.222656 187.496094 C 275.222656 188.933594 275.1875 190.367188 275.117188 191.800781 C 275.046875 193.234375 274.941406 194.667969 274.800781 196.097656 C 274.660156 197.523438 274.484375 198.949219 274.273438 200.371094 C 274.0625 201.789062 273.820312 203.203125 273.539062 204.613281 C 273.257812 206.019531 272.945312 207.421875 272.59375 208.8125 C 272.246094 210.207031 271.863281 211.589844 271.445312 212.964844 C 271.03125 214.335938 270.578125 215.699219 270.097656 217.050781 C 269.613281 218.402344 269.097656 219.742188 268.546875 221.070312 C 267.996094 222.394531 267.414062 223.707031 266.800781 225.003906 C 266.1875 226.304688 265.542969 227.585938 264.867188 228.851562 C 264.1875 230.117188 263.480469 231.367188 262.742188 232.597656 C 262.003906 233.828125 261.238281 235.042969 260.441406 236.234375 C 259.640625 237.429688 258.816406 238.601562 257.960938 239.757812 C 257.105469 240.910156 256.222656 242.039062 255.3125 243.152344 C 254.398438 244.261719 253.460938 245.347656 252.5 246.410156 C 251.535156 247.476562 250.542969 248.515625 249.53125 249.53125 C 248.515625 250.542969 247.476562 251.535156 246.410156 252.5 C 245.347656 253.460938 244.261719 254.398438 243.152344 255.3125 C 242.039062 256.222656 240.910156 257.105469 239.757812 257.960938 C 238.601562 258.816406 237.429688 259.640625 236.234375 260.441406 C 235.042969 261.238281 233.828125 262.003906 232.597656 262.742188 C 231.367188 263.480469 230.117188 264.1875 228.851562 264.867188 C 227.585938 265.542969 226.304688 266.1875 225.003906 266.800781 C 223.707031 267.414062 222.394531 267.996094 221.070312 268.546875 C 219.742188 269.097656 218.402344 269.613281 217.050781 270.097656 C 215.699219 270.578125 214.335938 271.03125 212.964844 271.445312 C 211.589844 271.863281 210.207031 272.246094 208.8125 272.59375 C 207.421875 272.945312 206.019531 273.257812 204.613281 273.539062 C 203.203125 273.820312 201.789062 274.0625 200.371094 274.273438 C 198.949219 274.484375 197.523438 274.660156 196.097656 274.800781 C 194.667969 274.941406 193.234375 275.046875 191.800781 275.117188 C 190.367188 275.1875 188.933594 275.222656 187.496094 275.222656 C 186.0625 275.222656 184.628906 275.1875 183.191406 275.117188 C 181.757812 275.046875 180.328125 274.941406 178.898438 274.800781 C 177.46875 274.660156 176.046875 274.484375 174.625 274.273438 C 173.207031 274.0625 171.792969 273.820312 170.382812 273.539062 C 168.976562 273.257812 167.574219 272.945312 166.183594 272.59375 C 164.789062 272.246094 163.40625 271.863281 162.03125 271.445312 C 160.65625 271.03125 159.296875 270.578125 157.945312 270.097656 C 156.589844 269.613281 155.253906 269.097656 153.925781 268.546875 C 152.601562 267.996094 151.289062 267.414062 149.988281 266.800781 C 148.691406 266.1875 147.410156 265.542969 146.144531 264.867188 C 144.878906 264.1875 143.628906 263.480469 142.398438 262.742188 C 141.164062 262.003906 139.953125 261.238281 138.757812 260.441406 C 137.566406 259.640625 136.390625 258.816406 135.238281 257.960938 C 134.085938 257.105469 132.953125 256.222656 131.84375 255.3125 C 130.734375 254.398438 129.648438 253.460938 128.585938 252.5 C 127.519531 251.535156 126.480469 250.542969 125.464844 249.53125 C 124.449219 248.515625 123.460938 247.476562 122.496094 246.410156 C 121.53125 245.347656 120.59375 244.261719 119.683594 243.152344 C 118.773438 242.039062 117.890625 240.910156 117.035156 239.757812 C 116.179688 238.601562 115.351562 237.429688 114.554688 236.234375 C 113.757812 235.042969 112.988281 233.828125 112.253906 232.597656 C 111.515625 231.367188 110.804688 230.117188 110.128906 228.851562 C 109.453125 227.585938 108.808594 226.304688 108.195312 225.003906 C 107.578125 223.707031 107 222.394531 106.449219 221.070312 C 105.898438 219.742188 105.382812 218.402344 104.898438 217.050781 C 104.414062 215.699219 103.964844 214.335938 103.546875 212.964844 C 103.132812 211.589844 102.75 210.207031 102.398438 208.8125 C 102.050781 207.421875 101.738281 206.019531 101.457031 204.613281 C 101.175781 203.203125 100.929688 201.789062 100.71875 200.371094 C 100.511719 198.949219 100.335938 197.523438 100.195312 196.097656 C 100.050781 194.667969 99.945312 193.234375 99.875 191.800781 C 99.804688 190.367188 99.769531 188.933594 99.769531 187.496094 C 99.769531 186.0625 99.804688 184.628906 99.875 183.191406 C 99.945312 181.757812 100.050781 180.328125 100.195312 178.898438 C 100.335938 177.46875 100.511719 176.046875 100.71875 174.625 C 100.929688 173.207031 101.175781 171.792969 101.457031 170.382812 C 101.738281 168.976562 102.050781 167.574219 102.398438 166.183594 C 102.75 164.789062 103.132812 163.40625 103.546875 162.03125 C 103.964844 160.65625 104.414062 159.296875 104.898438 157.945312 C 105.382812 156.589844 105.898438 155.253906 106.449219 153.925781 C 107 152.601562 107.578125 151.289062 108.195312 149.988281 C 108.808594 148.691406 109.453125 147.410156 110.128906 146.144531 C 110.804688 144.878906 111.515625 143.628906 112.253906 142.398438 C 112.988281 141.164062 113.757812 139.953125 114.554688 138.757812 C 115.351562 137.566406 116.179688 136.390625 117.035156 135.238281 C 117.890625 134.085938 118.773438 132.953125 119.683594 131.84375 C 120.59375 130.734375 121.53125 129.648438 122.496094 128.585938 C 123.460938 127.519531 124.449219 126.480469 125.464844 125.464844 C 126.480469 124.449219 127.519531 123.460938 128.585938 122.496094 C 129.648438 121.53125 130.734375 120.59375 131.84375 119.683594 C 132.953125 118.773438 134.085938 117.890625 135.238281 117.035156 C 136.390625 116.179688 137.566406 115.351562 138.757812 114.554688 C 139.953125 113.757812 141.164062 112.988281 142.398438 112.253906 C 143.628906 111.515625 144.878906 110.804688 146.144531 110.128906 C 147.410156 109.453125 148.691406 108.808594 149.988281 108.195312 C 151.289062 107.578125 152.601562 107 153.925781 106.449219 C 155.253906 105.898438 156.589844 105.382812 157.945312 104.898438 C 159.296875 104.414062 160.65625 103.964844 162.03125 103.546875 C 163.40625 103.132812 164.789062 102.75 166.183594 102.398438 C 167.574219 102.050781 168.976562 101.738281 170.382812 101.457031 C 171.792969 101.175781 173.207031 100.929688 174.625 100.71875 C 176.046875 100.511719 177.46875 100.335938 178.898438 100.195312 C 180.328125 100.050781 181.757812 99.945312 183.191406 99.875 C 184.628906 99.804688 186.0625 99.769531 187.496094 99.769531 C 188.933594 99.769531 190.367188 99.804688 191.800781 99.875 C 193.234375 99.945312 194.667969 100.050781 196.097656 100.195312 C 197.523438 100.335938 198.949219 100.511719 200.371094 100.71875 C 201.789062 100.929688 203.203125 101.175781 204.613281 101.457031 C 206.019531 101.738281 207.421875 102.050781 208.8125 102.398438 C 210.207031 102.75 211.589844 103.132812 212.964844 103.546875 C 214.335938 103.964844 215.699219 104.414062 217.050781 104.898438 C 218.402344 105.382812 219.742188 105.898438 221.070312 106.449219 C 222.394531 107 223.707031 107.578125 225.003906 108.195312 C 226.304688 108.808594 227.585938 109.453125 228.851562 110.128906 C 230.117188 110.804688 231.367188 111.515625 232.597656 112.253906 C 233.828125 112.988281 235.042969 113.757812 236.234375 114.554688 C 237.429688 115.351562 238.601562 116.179688 239.757812 117.035156 C 240.910156 117.890625 242.039062 118.773438 243.152344 119.683594 C 244.261719 120.59375 245.347656 121.53125 246.410156 122.496094 C 247.476562 123.460938 248.515625 124.449219 249.53125 125.464844 C 250.542969 126.480469 251.535156 127.519531 252.5 128.585938 C 253.460938 129.648438 254.398438 130.734375 255.3125 131.84375 C 256.222656 132.953125 257.105469 134.085938 257.960938 135.238281 C 258.816406 136.390625 259.640625 137.566406 260.441406 138.757812 C 261.238281 139.953125 262.003906 141.164062 262.742188 142.398438 C 263.480469 143.628906 264.1875 144.878906 264.867188 146.144531 C 265.542969 147.410156 266.1875 148.691406 266.800781 149.988281 C 267.414062 151.289062 267.996094 152.601562 268.546875 153.925781 C 269.097656 155.253906 269.613281 156.589844 270.097656 157.945312 C 270.578125 159.296875 271.03125 160.65625 271.445312 162.03125 C 271.863281 163.40625 272.246094 164.789062 272.59375 166.183594 C 272.945312 167.574219 273.257812 168.976562 273.539062 170.382812 C 273.820312 171.792969 274.0625 173.207031 274.273438 174.625 C 274.484375 176.046875 274.660156 177.46875 274.800781 178.898438 C 274.941406 180.328125 275.046875 181.757812 275.117188 183.191406 C 275.1875 184.628906 275.222656 186.0625 275.222656 187.496094 Z M 275.222656 187.496094 " fill-opacity="1" fill-rule="nonzero"/><path fill="#000000" d="M 187.519531 275.269531 C 139.042969 275.269531 99.769531 235.730469 99.769531 187.519531 C 99.769531 139.3125 139.042969 99.769531 187.519531 99.769531 C 236 99.769531 275.269531 139.042969 275.269531 187.519531 C 275.269531 236 235.730469 275.269531 187.519531 275.269531 Z M 187.519531 105.1875 C 142.019531 105.1875 105.1875 142.019531 105.1875 187.519531 C 105.1875 233.019531 142.019531 269.855469 187.519531 269.855469 C 233.019531 269.855469 269.855469 233.019531 269.855469 187.519531 C 269.855469 142.019531 232.75 105.1875 187.519531 105.1875 Z M 187.519531 105.1875 " fill-opacity="1" fill-rule="nonzero"/></g><g fill="#000000" fill-opacity="1"><g transform="translate(134.601946, 220.124986)"><g><path d="M 4.78125 0 L 4.78125 -60.390625 L 19.875 -60.390625 L 19.875 -11.625 L 48.390625 -11.625 L 48.390625 0 Z M 4.78125 0 "/></g></g></g><g fill="#000000" fill-opacity="1"><g transform="translate(183.832972, 220.124986)"><g><path d="M 35.359375 0.9375 C 24.785156 0.9375 16.734375 -1.765625 11.203125 -7.171875 C 5.671875 -12.578125 2.90625 -20.097656 2.90625 -29.734375 C 2.90625 -39.796875 5.609375 -47.578125 11.015625 -53.078125 C 16.421875 -58.578125 24.503906 -61.328125 35.265625 -61.328125 C 38.953125 -61.328125 42.25 -61.046875 45.15625 -60.484375 C 48.0625 -59.921875 50.859375 -59.171875 53.546875 -58.234375 L 53.546875 -45.015625 C 48.109375 -47.265625 42.390625 -48.390625 36.390625 -48.390625 C 30.140625 -48.390625 25.554688 -46.890625 22.640625 -43.890625 C 19.734375 -40.890625 18.28125 -36.171875 18.28125 -29.734375 C 18.28125 -23.597656 19.8125 -19.09375 22.875 -16.21875 C 25.945312 -13.34375 30.515625 -11.90625 36.578125 -11.90625 C 39.515625 -11.90625 42.421875 -12.171875 45.296875 -12.703125 C 48.171875 -13.234375 50.953125 -14.0625 53.640625 -15.1875 L 53.640625 -1.875 C 51.015625 -1 48.234375 -0.3125 45.296875 0.1875 C 42.359375 0.6875 39.046875 0.9375 35.359375 0.9375 Z M 35.359375 0.9375 "/></g></g></g></svg>