<svg xmlns="http://www.w3.org/2000/svg" xmlns:xlink="http://www.w3.org/1999/xlink" width="50" zoomAndPan="magnify" viewBox="0 0 37.5 37.499999" height="50" preserveAspectRatio="xMidYMid meet" version="1.0"><defs><clipPath id="317ceda537"><path d="M 14 9.421875 L 23 9.421875 L 23 20 L 14 20 Z M 14 9.421875 " clip-rule="nonzero"/></clipPath><clipPath id="9602f904f6"><path d="M 10.230469 19 L 26.511719 19 L 26.511719 27.925781 L 10.230469 27.925781 Z M 10.230469 19 " clip-rule="nonzero"/></clipPath><clipPath id="f35c2ea8af"><path d="M 4.078125 4.078125 L 32.945312 4.078125 L 32.945312 32.945312 L 4.078125 32.945312 Z M 4.078125 4.078125 " clip-rule="nonzero"/></clipPath></defs><g clip-path="url(#317ceda537)"><path fill="#000000" d="M 18.371094 19.019531 C 20.765625 19.019531 22.710938 16.390625 22.710938 13.914062 C 22.710938 11.4375 20.765625 9.421875 18.371094 9.421875 C 15.976562 9.421875 14.03125 11.4375 14.03125 13.914062 C 14.03125 16.390625 15.976562 19.019531 18.371094 19.019531 Z M 18.371094 19.019531 " fill-opacity="1" fill-rule="nonzero"/></g><g clip-path="url(#9602f904f6)"><path fill="#000000" d="M 21.628906 19.066406 C 20.785156 19.730469 19.738281 20.125 18.597656 20.125 L 18.140625 20.125 C 17.003906 20.125 15.953125 19.730469 15.113281 19.066406 C 12.363281 19.527344 10.265625 21.992188 10.265625 24.96875 C 10.265625 26.601562 13.894531 27.925781 18.371094 27.925781 C 22.847656 27.925781 26.476562 26.601562 26.476562 24.96875 C 26.476562 21.992188 24.378906 19.527344 21.628906 19.066406 Z M 21.628906 19.066406 " fill-opacity="1" fill-rule="nonzero"/></g><g clip-path="url(#f35c2ea8af)"><path fill="#000000" d="M 18.511719 32.945312 C 10.539062 32.945312 4.078125 26.441406 4.078125 18.511719 C 4.078125 10.582031 10.539062 4.078125 18.511719 4.078125 C 26.484375 4.078125 32.945312 10.539062 32.945312 18.511719 C 32.945312 26.484375 26.441406 32.945312 18.511719 32.945312 Z M 18.511719 4.96875 C 11.027344 4.96875 4.96875 11.027344 4.96875 18.511719 C 4.96875 25.996094 11.027344 32.050781 18.511719 32.050781 C 25.996094 32.050781 32.050781 25.996094 32.050781 18.511719 C 32.050781 11.027344 25.949219 4.96875 18.511719 4.96875 Z M 18.511719 4.96875 " fill-opacity="1" fill-rule="nonzero"/></g></svg>