<svg xmlns="http://www.w3.org/2000/svg" xmlns:xlink="http://www.w3.org/1999/xlink" width="50" zoomAndPan="magnify" viewBox="0 0 37.5 37.499999" height="50" preserveAspectRatio="xMidYMid meet" version="1.0"><defs><clipPath id="cde1f49234"><path d="M 4 22 L 33 22 L 33 33.304688 L 4 33.304688 Z M 4 22 " clip-rule="nonzero"/></clipPath><clipPath id="1ab0946188"><path d="M 4 3.699219 L 33 3.699219 L 33 16 L 4 16 Z M 4 3.699219 " clip-rule="nonzero"/></clipPath></defs><g clip-path="url(#cde1f49234)"><path fill="#36352a" d="M 31.347656 22.75 C 31.390625 23.34375 31.265625 23.90625 30.941406 24.414062 C 30.597656 24.945312 30.023438 25.222656 29.628906 25.707031 C 29.410156 25.96875 29.230469 26.25 29.097656 26.566406 C 28.960938 26.875 28.902344 27.195312 28.796875 27.511719 C 28.640625 27.988281 28.304688 28.449219 27.90625 28.738281 C 27.398438 29.109375 26.816406 29.160156 26.242188 29.421875 C 25.621094 29.707031 25.1875 30.164062 24.78125 30.695312 C 24.421875 31.164062 23.914062 31.488281 23.347656 31.621094 C 22.71875 31.773438 22.09375 31.546875 21.449219 31.609375 C 21.058594 31.648438 20.695312 31.742188 20.332031 31.898438 C 20.035156 32.027344 19.773438 32.226562 19.476562 32.355469 C 18.890625 32.605469 18.230469 32.605469 17.632812 32.394531 C 17.59375 32.378906 17.554688 32.363281 17.515625 32.347656 C 17.507812 32.34375 17.332031 32.261719 17.398438 32.296875 C 17.46875 32.332031 17.359375 32.273438 17.359375 32.273438 C 17.324219 32.253906 17.292969 32.238281 17.261719 32.21875 C 17.207031 32.1875 17.152344 32.152344 17.097656 32.121094 C 16.953125 32.042969 16.808594 31.96875 16.660156 31.898438 C 16.324219 31.730469 15.910156 31.644531 15.539062 31.609375 C 15.144531 31.570312 14.777344 31.660156 14.386719 31.683594 C 14.039062 31.703125 13.707031 31.652344 13.378906 31.539062 C 13.34375 31.527344 13.308594 31.515625 13.269531 31.5 C 13.34375 31.527344 13.316406 31.519531 13.300781 31.511719 C 13.308594 31.515625 13.113281 31.429688 13.199219 31.46875 C 13.273438 31.503906 13.148438 31.445312 13.132812 31.4375 C 12.988281 31.367188 12.851562 31.285156 12.722656 31.195312 C 12.476562 31.023438 12.28125 30.796875 12.109375 30.558594 C 11.558594 29.808594 10.832031 29.378906 9.953125 29.148438 C 9.40625 29.003906 8.898438 28.675781 8.5625 28.222656 C 8.179688 27.714844 8.121094 27.117188 7.878906 26.550781 C 7.738281 26.226562 7.550781 25.9375 7.324219 25.664062 C 7.097656 25.394531 6.855469 25.21875 6.59375 25.011719 C 6.140625 24.65625 5.824219 24.152344 5.6875 23.601562 C 5.617188 23.320312 5.605469 23.046875 5.625 22.75 L 5.117188 23.257812 L 7.789062 23.257812 C 9.914062 23.257812 12.039062 23.257812 14.164062 23.257812 C 16.742188 23.257812 19.316406 23.257812 21.894531 23.257812 L 28.574219 23.257812 C 29.652344 23.257812 30.734375 23.289062 31.808594 23.257812 C 31.824219 23.257812 31.839844 23.257812 31.855469 23.257812 C 32.511719 23.257812 32.511719 22.242188 31.855469 22.242188 L 8.398438 22.242188 C 7.320312 22.242188 6.238281 22.214844 5.160156 22.242188 C 5.148438 22.242188 5.132812 22.242188 5.117188 22.242188 C 4.828125 22.242188 4.625 22.476562 4.609375 22.75 C 4.5625 23.441406 4.722656 24.140625 5.058594 24.746094 C 5.226562 25.050781 5.449219 25.335938 5.699219 25.574219 C 5.9375 25.800781 6.21875 25.96875 6.449219 26.207031 C 6.667969 26.433594 6.851562 26.707031 6.972656 27 C 7.097656 27.292969 7.132812 27.597656 7.238281 27.886719 C 7.496094 28.5625 7.921875 29.132812 8.507812 29.566406 C 8.960938 29.902344 9.484375 30.054688 10.015625 30.226562 C 10.101562 30.253906 10.191406 30.292969 10.28125 30.3125 C 10.371094 30.335938 10.203125 30.289062 10.195312 30.273438 C 10.203125 30.289062 10.277344 30.320312 10.289062 30.324219 C 10.433594 30.40625 10.589844 30.476562 10.722656 30.574219 C 11.019531 30.785156 11.21875 31.070312 11.4375 31.351562 C 11.65625 31.628906 11.917969 31.867188 12.210938 32.074219 C 12.347656 32.171875 12.496094 32.257812 12.648438 32.328125 C 12.6875 32.347656 12.992188 32.476562 12.847656 32.414062 C 12.703125 32.351562 13.011719 32.484375 13.039062 32.492188 C 13.402344 32.628906 13.800781 32.699219 14.191406 32.703125 C 14.59375 32.707031 14.980469 32.597656 15.378906 32.613281 C 15.59375 32.621094 15.777344 32.671875 15.976562 32.730469 C 16.050781 32.753906 16.148438 32.804688 16.222656 32.804688 C 16.269531 32.804688 16.078125 32.726562 16.140625 32.769531 C 16.171875 32.792969 16.210938 32.808594 16.246094 32.824219 C 16.40625 32.90625 16.5625 32.992188 16.71875 33.078125 C 16.800781 33.128906 16.886719 33.171875 16.976562 33.210938 C 17.09375 33.265625 17.179688 33.25 17.007812 33.226562 C 17.175781 33.25 17.363281 33.378906 17.535156 33.429688 C 17.890625 33.53125 18.273438 33.578125 18.644531 33.5625 C 19.015625 33.542969 19.375 33.476562 19.710938 33.347656 C 20.066406 33.210938 20.371094 32.996094 20.710938 32.835938 C 21.007812 32.695312 21.34375 32.621094 21.671875 32.613281 C 22.03125 32.601562 22.375 32.695312 22.734375 32.703125 C 23.40625 32.714844 24.09375 32.519531 24.664062 32.15625 C 24.957031 31.96875 25.230469 31.738281 25.457031 31.46875 C 25.679688 31.199219 25.855469 30.921875 26.121094 30.695312 C 26.332031 30.507812 26.589844 30.355469 26.851562 30.261719 C 27.148438 30.152344 27.453125 30.101562 27.742188 29.980469 C 28.378906 29.71875 28.90625 29.289062 29.308594 28.726562 C 29.496094 28.464844 29.636719 28.171875 29.746094 27.871094 C 29.855469 27.570312 29.890625 27.269531 30.015625 26.984375 C 30.140625 26.703125 30.3125 26.441406 30.527344 26.222656 C 30.765625 25.976562 31.058594 25.804688 31.300781 25.566406 C 31.792969 25.085938 32.148438 24.449219 32.289062 23.78125 C 32.363281 23.441406 32.390625 23.097656 32.367188 22.75 C 32.347656 22.476562 32.148438 22.242188 31.859375 22.242188 C 31.597656 22.242188 31.332031 22.476562 31.351562 22.75 Z M 31.347656 22.75 " fill-opacity="1" fill-rule="nonzero"/></g><g clip-path="url(#1ab0946188)"><path fill="#36352a" d="M 5.625 14.570312 C 5.582031 13.988281 5.703125 13.433594 6.015625 12.9375 C 6.34375 12.417969 6.886719 12.148438 7.28125 11.695312 C 7.503906 11.441406 7.699219 11.15625 7.839844 10.851562 C 7.980469 10.542969 8.054688 10.222656 8.152344 9.898438 C 8.300781 9.402344 8.59375 8.96875 9.003906 8.632812 C 9.160156 8.503906 9.429688 8.347656 9.617188 8.269531 C 9.902344 8.160156 10.207031 8.117188 10.488281 8.003906 C 11.148438 7.742188 11.695312 7.3125 12.113281 6.738281 C 12.4375 6.296875 12.859375 5.941406 13.378906 5.769531 C 13.660156 5.675781 13.917969 5.632812 14.210938 5.632812 C 14.539062 5.636719 14.859375 5.71875 15.191406 5.722656 C 15.554688 5.730469 15.929688 5.675781 16.277344 5.5625 C 16.625 5.453125 16.949219 5.257812 17.277344 5.078125 C 17.863281 4.753906 18.558594 4.6875 19.199219 4.878906 C 19.476562 4.964844 19.71875 5.117188 19.972656 5.25 C 20.480469 5.511719 20.976562 5.691406 21.558594 5.71875 C 21.929688 5.742188 22.289062 5.648438 22.660156 5.636719 C 23 5.625 23.324219 5.679688 23.644531 5.796875 C 24.214844 6.007812 24.59375 6.414062 24.953125 6.882812 C 25.183594 7.179688 25.488281 7.472656 25.808594 7.675781 C 25.945312 7.761719 26.097656 7.839844 26.242188 7.910156 C 26.550781 8.066406 26.890625 8.121094 27.214844 8.230469 C 27.507812 8.332031 27.621094 8.390625 27.898438 8.59375 C 28.105469 8.746094 28.300781 8.941406 28.449219 9.152344 C 28.816406 9.675781 28.871094 10.296875 29.132812 10.867188 C 29.273438 11.175781 29.46875 11.457031 29.691406 11.710938 C 29.902344 11.953125 30.160156 12.132812 30.40625 12.332031 C 30.84375 12.691406 31.148438 13.175781 31.285156 13.722656 C 31.355469 14 31.371094 14.273438 31.351562 14.570312 L 31.859375 14.0625 L 8.402344 14.0625 C 7.324219 14.0625 6.242188 14.03125 5.164062 14.0625 C 5.148438 14.0625 5.132812 14.0625 5.117188 14.0625 C 4.464844 14.0625 4.460938 15.078125 5.117188 15.078125 L 7.792969 15.078125 C 9.917969 15.078125 12.042969 15.078125 14.167969 15.078125 C 16.742188 15.078125 19.320312 15.078125 21.898438 15.078125 L 28.574219 15.078125 C 29.652344 15.078125 30.734375 15.109375 31.8125 15.078125 C 31.828125 15.078125 31.84375 15.078125 31.859375 15.078125 C 32.148438 15.078125 32.347656 14.84375 32.367188 14.570312 C 32.410156 13.890625 32.257812 13.203125 31.929688 12.601562 C 31.769531 12.308594 31.5625 12.03125 31.324219 11.792969 C 31.085938 11.558594 30.808594 11.394531 30.574219 11.164062 C 30.339844 10.9375 30.175781 10.695312 30.042969 10.414062 C 29.90625 10.132812 29.863281 9.824219 29.765625 9.53125 C 29.546875 8.886719 29.15625 8.300781 28.621094 7.875 C 28.484375 7.769531 28.34375 7.65625 28.191406 7.574219 C 28.007812 7.476562 28.328125 7.675781 28.160156 7.566406 C 28.066406 7.503906 27.96875 7.449219 27.863281 7.40625 C 27.679688 7.320312 27.492188 7.246094 27.296875 7.195312 C 27.101562 7.144531 26.90625 7.105469 26.722656 7.023438 C 26.828125 7.070312 26.640625 6.972656 26.613281 6.957031 C 26.527344 6.910156 26.445312 6.855469 26.355469 6.816406 C 26.234375 6.765625 26.492188 6.9375 26.347656 6.820312 C 26.269531 6.753906 26.191406 6.691406 26.113281 6.625 C 25.925781 6.472656 25.777344 6.292969 25.632812 6.097656 C 25.398438 5.78125 25.132812 5.515625 24.8125 5.285156 C 24.246094 4.875 23.550781 4.640625 22.851562 4.621094 C 22.46875 4.609375 22.097656 4.710938 21.714844 4.710938 C 21.546875 4.710938 21.382812 4.695312 21.21875 4.660156 C 21.128906 4.640625 21.039062 4.617188 20.953125 4.589844 C 20.914062 4.578125 20.875 4.5625 20.839844 4.550781 C 20.722656 4.515625 20.875 4.570312 20.832031 4.550781 C 20.5625 4.421875 20.300781 4.269531 20.035156 4.132812 C 19.445312 3.820312 18.75 3.703125 18.089844 3.78125 C 17.671875 3.832031 17.28125 3.945312 16.90625 4.128906 C 16.589844 4.28125 16.3125 4.492188 15.972656 4.597656 C 15.65625 4.695312 15.335938 4.722656 15.007812 4.703125 C 14.660156 4.679688 14.328125 4.601562 13.980469 4.625 C 13.300781 4.675781 12.644531 4.902344 12.101562 5.316406 C 11.8125 5.53125 11.570312 5.777344 11.355469 6.0625 C 11.175781 6.304688 10.992188 6.535156 10.746094 6.71875 C 10.230469 7.105469 9.601562 7.160156 9.027344 7.429688 C 8.453125 7.699219 7.96875 8.144531 7.617188 8.671875 C 7.4375 8.9375 7.300781 9.234375 7.199219 9.539062 C 7.105469 9.824219 7.066406 10.125 6.933594 10.398438 C 6.796875 10.679688 6.621094 10.929688 6.398438 11.148438 C 6.164062 11.378906 5.882812 11.546875 5.648438 11.78125 C 5.171875 12.257812 4.824219 12.882812 4.683594 13.542969 C 4.613281 13.878906 4.582031 14.226562 4.609375 14.570312 C 4.628906 14.84375 4.828125 15.078125 5.117188 15.078125 C 5.375 15.078125 5.644531 14.84375 5.625 14.570312 Z M 5.625 14.570312 " fill-opacity="1" fill-rule="nonzero"/></g><path fill="#36352a" d="M 27.746094 22.617188 C 26.578125 25.441406 24.089844 27.65625 21.136719 28.46875 C 18.117188 29.300781 14.765625 28.628906 12.324219 26.667969 C 10.980469 25.59375 9.90625 24.191406 9.257812 22.617188 C 9.09375 22.828125 8.929688 23.042969 8.765625 23.257812 L 25.84375 23.257812 C 26.628906 23.257812 27.417969 23.285156 28.203125 23.257812 C 28.214844 23.257812 28.226562 23.257812 28.238281 23.257812 C 28.890625 23.257812 28.890625 22.242188 28.238281 22.242188 L 11.160156 22.242188 C 10.375 22.242188 9.585938 22.214844 8.800781 22.242188 C 8.789062 22.242188 8.777344 22.242188 8.765625 22.242188 C 8.46875 22.242188 8.148438 22.574219 8.277344 22.886719 C 9.582031 26.042969 12.253906 28.515625 15.566406 29.4375 C 18.957031 30.386719 22.628906 29.597656 25.375 27.40625 C 26.867188 26.21875 28 24.644531 28.726562 22.886719 C 28.832031 22.632812 28.613281 22.328125 28.371094 22.261719 C 28.082031 22.179688 27.851562 22.359375 27.746094 22.617188 Z M 27.746094 22.617188 " fill-opacity="1" fill-rule="nonzero"/><path fill="#36352a" d="M 9.257812 14.703125 C 10.425781 11.878906 12.910156 9.664062 15.863281 8.851562 C 18.886719 8.019531 22.238281 8.691406 24.679688 10.648438 C 26.023438 11.726562 27.09375 13.128906 27.746094 14.703125 C 27.910156 14.488281 28.074219 14.277344 28.234375 14.0625 L 11.160156 14.0625 C 10.375 14.0625 9.585938 14.035156 8.800781 14.0625 C 8.789062 14.0625 8.777344 14.0625 8.765625 14.0625 C 8.113281 14.0625 8.113281 15.078125 8.765625 15.078125 L 25.84375 15.078125 C 26.628906 15.078125 27.417969 15.105469 28.203125 15.078125 C 28.214844 15.078125 28.226562 15.078125 28.238281 15.078125 C 28.535156 15.078125 28.855469 14.746094 28.726562 14.433594 C 27.421875 11.273438 24.75 8.804688 21.4375 7.882812 C 18.046875 6.933594 14.375 7.722656 11.628906 9.914062 C 10.136719 11.101562 9.003906 12.675781 8.277344 14.433594 C 8.171875 14.6875 8.390625 14.992188 8.632812 15.058594 C 8.921875 15.140625 9.152344 14.960938 9.257812 14.703125 Z M 9.257812 14.703125 " fill-opacity="1" fill-rule="nonzero"/><path fill="#36352a" d="M 33.945312 18.917969 C 34.535156 20.113281 35.125 21.308594 35.710938 22.503906 C 35.796875 22.671875 35.878906 22.839844 35.960938 23.007812 C 36.105469 22.753906 36.253906 22.496094 36.398438 22.242188 L 32.835938 22.242188 C 31.554688 22.242188 30.273438 22.242188 28.992188 22.242188 C 27.421875 22.242188 25.851562 22.242188 24.28125 22.242188 L 2.054688 22.242188 C 1.59375 22.242188 1.125 22.222656 0.664062 22.242188 C 0.644531 22.242188 0.625 22.242188 0.605469 22.242188 C 0.75 22.496094 0.894531 22.753906 1.042969 23.007812 C 1.636719 21.796875 2.234375 20.589844 2.828125 19.378906 C 2.902344 19.226562 2.984375 19.074219 3.054688 18.917969 C 3.195312 18.613281 3.046875 18.382812 2.917969 18.117188 C 2.570312 17.421875 2.226562 16.722656 1.882812 16.023438 C 1.605469 15.453125 1.324219 14.882812 1.042969 14.3125 C 0.894531 14.566406 0.75 14.824219 0.605469 15.078125 L 4.167969 15.078125 C 5.449219 15.078125 6.730469 15.078125 8.011719 15.078125 C 9.582031 15.078125 11.152344 15.078125 12.722656 15.078125 C 14.4375 15.078125 16.148438 15.078125 17.863281 15.078125 C 19.574219 15.078125 21.320312 15.078125 23.050781 15.078125 C 24.667969 15.078125 26.289062 15.078125 27.90625 15.078125 L 34.949219 15.078125 C 35.410156 15.078125 35.878906 15.097656 36.339844 15.078125 C 36.359375 15.074219 36.378906 15.078125 36.398438 15.078125 C 36.253906 14.820312 36.109375 14.566406 35.960938 14.3125 C 35.371094 15.507812 34.785156 16.703125 34.195312 17.898438 C 34.113281 18.066406 34.03125 18.234375 33.945312 18.402344 C 33.828125 18.648438 33.882812 18.953125 34.128906 19.097656 C 34.355469 19.230469 34.703125 19.164062 34.824219 18.914062 C 35.414062 17.71875 36 16.523438 36.589844 15.328125 C 36.671875 15.160156 36.757812 14.992188 36.839844 14.824219 C 37.003906 14.488281 36.804688 14.0625 36.398438 14.0625 L 32.835938 14.0625 C 31.554688 14.0625 30.273438 14.0625 28.992188 14.0625 C 27.421875 14.0625 25.851562 14.0625 24.28125 14.0625 C 22.566406 14.0625 20.855469 14.0625 19.140625 14.0625 L 2.054688 14.0625 C 1.59375 14.0625 1.128906 14.050781 0.664062 14.0625 C 0.644531 14.0625 0.625 14.0625 0.605469 14.0625 C 0.199219 14.0625 0 14.488281 0.164062 14.824219 C 0.753906 16.019531 1.34375 17.214844 1.929688 18.410156 C 2.015625 18.578125 2.097656 18.75 2.179688 18.914062 L 2.179688 18.402344 C 1.589844 19.597656 1.003906 20.792969 0.414062 21.988281 C 0.332031 22.15625 0.246094 22.324219 0.164062 22.492188 C 0 22.832031 0.199219 23.257812 0.605469 23.257812 L 17.863281 23.257812 C 19.589844 23.257812 21.320312 23.257812 23.050781 23.257812 C 24.667969 23.257812 26.289062 23.257812 27.90625 23.257812 L 34.949219 23.257812 C 35.410156 23.257812 35.875 23.269531 36.339844 23.257812 C 36.359375 23.257812 36.378906 23.257812 36.398438 23.257812 C 36.804688 23.257812 37.003906 22.832031 36.839844 22.492188 C 36.25 21.296875 35.660156 20.101562 35.070312 18.90625 C 34.988281 18.738281 34.90625 18.570312 34.824219 18.402344 C 34.703125 18.15625 34.355469 18.089844 34.128906 18.222656 C 33.878906 18.367188 33.824219 18.667969 33.945312 18.914062 Z M 33.945312 18.917969 " fill-opacity="1" fill-rule="nonzero"/><path fill="#36352a" d="M 18.480469 10.375 L 18.488281 10.375 C 18.488281 10.375 18.492188 10.375 18.492188 10.375 L 18.5 10.378906 L 18.527344 10.382812 L 18.546875 10.390625 L 18.554688 10.390625 L 18.558594 10.394531 L 18.566406 10.398438 L 18.59375 10.421875 L 18.597656 10.421875 L 18.597656 10.425781 L 18.601562 10.429688 C 18.613281 10.441406 18.621094 10.453125 18.628906 10.46875 L 18.882812 11.019531 C 18.894531 11.042969 18.910156 11.066406 18.933594 11.082031 L 18.953125 11.09375 L 18.964844 11.097656 C 18.976562 11.105469 18.988281 11.109375 19.003906 11.109375 L 19.589844 11.199219 C 19.675781 11.210938 19.734375 11.289062 19.722656 11.375 C 19.714844 11.410156 19.703125 11.441406 19.679688 11.464844 L 19.574219 11.566406 C 19.574219 11.566406 19.242188 11.910156 19.242188 11.910156 C 19.207031 11.945312 19.191406 11.996094 19.199219 12.046875 L 19.300781 12.667969 C 19.304688 12.6875 19.304688 12.707031 19.300781 12.722656 L 19.300781 12.730469 C 19.300781 12.730469 19.292969 12.746094 19.292969 12.746094 L 19.285156 12.773438 L 19.277344 12.789062 L 19.246094 12.820312 L 19.238281 12.824219 L 19.234375 12.828125 L 19.214844 12.835938 L 19.191406 12.847656 L 19.183594 12.847656 L 19.175781 12.851562 L 19.148438 12.851562 C 19.148438 12.851562 19.132812 12.851562 19.132812 12.851562 L 19.121094 12.851562 C 19.105469 12.847656 19.089844 12.84375 19.074219 12.832031 L 18.5625 12.546875 C 18.550781 12.542969 18.539062 12.535156 18.527344 12.53125 L 18.488281 12.527344 L 18.449219 12.53125 C 18.4375 12.535156 18.421875 12.542969 18.410156 12.546875 L 17.902344 12.832031 C 17.886719 12.84375 17.871094 12.847656 17.851562 12.851562 L 17.847656 12.851562 C 17.847656 12.851562 17.84375 12.851562 17.84375 12.851562 L 17.800781 12.851562 C 17.800781 12.851562 17.792969 12.847656 17.792969 12.847656 L 17.785156 12.847656 L 17.761719 12.835938 L 17.742188 12.828125 L 17.738281 12.824219 L 17.730469 12.820312 L 17.699219 12.789062 L 17.691406 12.773438 L 17.679688 12.746094 L 17.675781 12.734375 L 17.675781 12.726562 C 17.675781 12.726562 17.671875 12.722656 17.671875 12.722656 C 17.667969 12.707031 17.667969 12.6875 17.671875 12.671875 L 17.777344 12.046875 C 17.785156 11.996094 17.769531 11.945312 17.734375 11.910156 L 17.46875 11.640625 C 17.46875 11.640625 17.296875 11.464844 17.296875 11.464844 C 17.273438 11.441406 17.257812 11.410156 17.253906 11.375 C 17.242188 11.289062 17.300781 11.210938 17.386719 11.199219 L 17.972656 11.109375 C 17.988281 11.109375 18 11.105469 18.011719 11.101562 L 18.019531 11.09375 L 18.042969 11.082031 C 18.0625 11.066406 18.082031 11.046875 18.089844 11.019531 L 18.347656 10.46875 C 18.351562 10.453125 18.363281 10.441406 18.371094 10.429688 L 18.378906 10.425781 L 18.40625 10.398438 L 18.417969 10.394531 L 18.421875 10.390625 L 18.429688 10.390625 L 18.449219 10.382812 L 18.472656 10.378906 L 18.484375 10.378906 Z M 18.480469 10.375 " fill-opacity="1" fill-rule="evenodd"/><path fill="#36352a" d="M 21.644531 10.84375 L 21.648438 10.84375 C 21.648438 10.84375 21.65625 10.84375 21.65625 10.84375 L 21.660156 10.84375 L 21.683594 10.847656 L 21.699219 10.851562 L 21.707031 10.855469 L 21.710938 10.859375 L 21.71875 10.863281 L 21.738281 10.878906 L 21.746094 10.886719 C 21.757812 10.894531 21.761719 10.90625 21.769531 10.917969 L 21.980469 11.378906 C 21.992188 11.398438 22.003906 11.417969 22.023438 11.429688 L 22.042969 11.441406 L 22.050781 11.445312 C 22.058594 11.449219 22.070312 11.453125 22.082031 11.453125 L 22.574219 11.527344 C 22.644531 11.539062 22.695312 11.605469 22.683594 11.675781 C 22.679688 11.703125 22.667969 11.730469 22.648438 11.75 L 22.5625 11.835938 C 22.5625 11.835938 22.28125 12.125 22.28125 12.125 C 22.253906 12.152344 22.238281 12.195312 22.246094 12.238281 L 22.332031 12.757812 C 22.335938 12.773438 22.335938 12.789062 22.332031 12.800781 L 22.332031 12.808594 C 22.332031 12.808594 22.328125 12.820312 22.328125 12.820312 L 22.3125 12.851562 L 22.308594 12.855469 L 22.296875 12.871094 L 22.285156 12.882812 L 22.277344 12.886719 L 22.273438 12.890625 L 22.257812 12.898438 L 22.238281 12.90625 L 22.230469 12.90625 L 22.226562 12.910156 L 22.203125 12.910156 C 22.203125 12.910156 22.1875 12.910156 22.1875 12.910156 L 22.179688 12.910156 C 22.164062 12.90625 22.152344 12.902344 22.140625 12.894531 L 21.710938 12.65625 C 21.703125 12.652344 21.691406 12.648438 21.679688 12.644531 L 21.648438 12.640625 L 21.617188 12.644531 C 21.605469 12.648438 21.59375 12.652344 21.585938 12.65625 L 21.160156 12.894531 C 21.144531 12.902344 21.132812 12.910156 21.117188 12.910156 L 21.113281 12.910156 C 21.113281 12.910156 21.109375 12.910156 21.109375 12.910156 L 21.074219 12.910156 C 21.074219 12.910156 21.066406 12.910156 21.066406 12.910156 L 21.058594 12.90625 L 21.039062 12.898438 L 21.023438 12.890625 L 21.019531 12.886719 L 21.011719 12.882812 L 21 12.871094 L 20.988281 12.855469 L 20.984375 12.851562 L 20.980469 12.84375 L 20.972656 12.820312 L 20.964844 12.808594 C 20.964844 12.808594 20.964844 12.800781 20.964844 12.800781 C 20.960938 12.789062 20.960938 12.773438 20.964844 12.757812 L 21.050781 12.238281 C 21.058594 12.195312 21.042969 12.152344 21.015625 12.125 L 20.792969 11.898438 C 20.792969 11.898438 20.648438 11.75 20.648438 11.75 C 20.628906 11.730469 20.617188 11.707031 20.613281 11.675781 C 20.601562 11.605469 20.652344 11.539062 20.722656 11.527344 L 21.214844 11.453125 C 21.226562 11.453125 21.238281 11.449219 21.246094 11.445312 L 21.253906 11.441406 L 21.273438 11.429688 C 21.292969 11.417969 21.304688 11.398438 21.316406 11.378906 L 21.527344 10.917969 C 21.535156 10.90625 21.542969 10.894531 21.550781 10.886719 L 21.558594 10.878906 L 21.578125 10.863281 L 21.59375 10.855469 L 21.597656 10.855469 L 21.613281 10.847656 L 21.636719 10.84375 Z M 21.644531 10.84375 " fill-opacity="1" fill-rule="evenodd"/><path fill="#36352a" d="M 15.335938 10.84375 L 15.339844 10.84375 C 15.339844 10.84375 15.34375 10.84375 15.34375 10.84375 L 15.351562 10.84375 L 15.371094 10.847656 L 15.386719 10.851562 L 15.394531 10.855469 L 15.398438 10.859375 L 15.40625 10.863281 L 15.425781 10.878906 L 15.433594 10.886719 C 15.441406 10.894531 15.449219 10.90625 15.457031 10.917969 L 15.667969 11.378906 C 15.675781 11.398438 15.691406 11.417969 15.707031 11.429688 L 15.726562 11.441406 L 15.734375 11.445312 C 15.742188 11.449219 15.753906 11.453125 15.765625 11.453125 L 16.25 11.527344 C 16.320312 11.539062 16.367188 11.605469 16.359375 11.675781 C 16.355469 11.703125 16.339844 11.730469 16.320312 11.75 L 16.238281 11.835938 C 16.238281 11.835938 15.960938 12.125 15.960938 12.125 C 15.933594 12.152344 15.917969 12.195312 15.925781 12.238281 L 16.011719 12.757812 C 16.015625 12.773438 16.015625 12.789062 16.011719 12.800781 L 16.011719 12.808594 C 16.011719 12.808594 16.003906 12.820312 16.003906 12.820312 L 15.996094 12.84375 L 15.992188 12.851562 L 15.988281 12.855469 L 15.976562 12.871094 L 15.964844 12.882812 L 15.957031 12.886719 L 15.953125 12.890625 L 15.9375 12.898438 L 15.917969 12.90625 L 15.910156 12.90625 L 15.90625 12.910156 L 15.882812 12.910156 C 15.882812 12.910156 15.871094 12.910156 15.871094 12.910156 L 15.863281 12.910156 C 15.847656 12.90625 15.832031 12.902344 15.820312 12.894531 L 15.402344 12.65625 C 15.390625 12.652344 15.378906 12.648438 15.371094 12.644531 L 15.339844 12.640625 L 15.304688 12.644531 C 15.296875 12.648438 15.285156 12.652344 15.273438 12.65625 L 14.855469 12.894531 C 14.84375 12.902344 14.828125 12.910156 14.8125 12.910156 L 14.808594 12.910156 C 14.808594 12.910156 14.804688 12.910156 14.804688 12.910156 L 14.769531 12.910156 C 14.769531 12.910156 14.765625 12.910156 14.765625 12.910156 L 14.757812 12.90625 L 14.738281 12.898438 L 14.722656 12.890625 L 14.71875 12.886719 L 14.710938 12.882812 L 14.699219 12.871094 L 14.6875 12.855469 L 14.683594 12.851562 L 14.679688 12.84375 L 14.671875 12.820312 L 14.664062 12.808594 C 14.664062 12.808594 14.664062 12.800781 14.664062 12.800781 C 14.660156 12.789062 14.660156 12.773438 14.664062 12.757812 L 14.75 12.238281 C 14.753906 12.195312 14.742188 12.152344 14.714844 12.125 L 14.496094 11.898438 C 14.496094 11.898438 14.355469 11.75 14.355469 11.75 C 14.335938 11.730469 14.320312 11.707031 14.316406 11.675781 C 14.308594 11.605469 14.355469 11.539062 14.425781 11.527344 L 14.910156 11.453125 C 14.921875 11.453125 14.933594 11.449219 14.941406 11.445312 L 14.949219 11.441406 L 14.96875 11.429688 C 14.988281 11.417969 15 11.398438 15.007812 11.378906 L 15.21875 10.917969 C 15.226562 10.90625 15.230469 10.894531 15.242188 10.886719 L 15.25 10.878906 L 15.269531 10.863281 L 15.277344 10.859375 L 15.28125 10.855469 L 15.289062 10.855469 L 15.304688 10.847656 L 15.324219 10.84375 Z M 15.335938 10.84375 " fill-opacity="1" fill-rule="evenodd"/><path fill="#36352a" d="M 18.480469 24.46875 L 18.488281 24.46875 C 18.488281 24.46875 18.492188 24.46875 18.492188 24.46875 L 18.5 24.46875 L 18.527344 24.472656 L 18.546875 24.480469 L 18.554688 24.484375 L 18.558594 24.488281 L 18.566406 24.492188 L 18.59375 24.511719 L 18.601562 24.519531 C 18.613281 24.53125 18.621094 24.546875 18.628906 24.558594 L 18.882812 25.113281 C 18.894531 25.136719 18.910156 25.15625 18.933594 25.171875 L 18.953125 25.183594 L 18.964844 25.191406 C 18.976562 25.195312 18.988281 25.199219 19.003906 25.203125 L 19.589844 25.289062 C 19.675781 25.300781 19.734375 25.382812 19.722656 25.46875 C 19.714844 25.5 19.703125 25.53125 19.679688 25.554688 L 19.574219 25.660156 C 19.574219 25.660156 19.242188 26 19.242188 26 C 19.207031 26.039062 19.191406 26.089844 19.199219 26.136719 L 19.300781 26.761719 C 19.304688 26.777344 19.304688 26.796875 19.300781 26.8125 L 19.300781 26.824219 C 19.300781 26.824219 19.292969 26.835938 19.292969 26.835938 L 19.285156 26.863281 L 19.277344 26.878906 L 19.261719 26.894531 L 19.246094 26.914062 L 19.238281 26.914062 L 19.234375 26.921875 L 19.214844 26.925781 L 19.183594 26.941406 L 19.148438 26.941406 C 19.148438 26.941406 19.132812 26.945312 19.132812 26.945312 L 19.128906 26.941406 L 19.121094 26.941406 C 19.105469 26.941406 19.089844 26.933594 19.074219 26.925781 L 18.5625 26.640625 C 18.550781 26.632812 18.539062 26.628906 18.527344 26.625 L 18.488281 26.621094 L 18.449219 26.625 C 18.4375 26.628906 18.421875 26.632812 18.410156 26.640625 L 17.902344 26.925781 C 17.886719 26.933594 17.871094 26.941406 17.851562 26.941406 L 17.847656 26.941406 C 17.847656 26.941406 17.84375 26.945312 17.84375 26.945312 L 17.828125 26.941406 L 17.800781 26.941406 C 17.800781 26.941406 17.792969 26.941406 17.792969 26.941406 L 17.785156 26.941406 L 17.761719 26.929688 L 17.742188 26.921875 L 17.738281 26.917969 L 17.730469 26.914062 L 17.714844 26.894531 L 17.699219 26.878906 L 17.679688 26.839844 L 17.675781 26.824219 L 17.675781 26.820312 C 17.675781 26.820312 17.671875 26.816406 17.671875 26.816406 C 17.667969 26.796875 17.667969 26.777344 17.671875 26.761719 L 17.777344 26.136719 C 17.785156 26.089844 17.769531 26.039062 17.734375 26 L 17.46875 25.734375 C 17.46875 25.734375 17.296875 25.554688 17.296875 25.554688 C 17.273438 25.53125 17.257812 25.5 17.253906 25.46875 C 17.242188 25.382812 17.300781 25.300781 17.386719 25.289062 L 17.972656 25.203125 C 17.988281 25.199219 18 25.195312 18.011719 25.191406 L 18.019531 25.1875 L 18.042969 25.171875 C 18.0625 25.15625 18.082031 25.136719 18.089844 25.113281 L 18.347656 24.5625 C 18.351562 24.546875 18.363281 24.53125 18.371094 24.519531 L 18.378906 24.515625 L 18.382812 24.511719 L 18.40625 24.492188 L 18.417969 24.488281 L 18.421875 24.484375 L 18.429688 24.480469 L 18.449219 24.472656 L 18.472656 24.472656 L 18.484375 24.46875 Z M 18.480469 24.46875 " fill-opacity="1" fill-rule="evenodd"/><path fill="#36352a" d="M 21.644531 24.46875 L 21.648438 24.46875 C 21.648438 24.46875 21.65625 24.46875 21.65625 24.46875 L 21.660156 24.46875 L 21.683594 24.472656 L 21.699219 24.480469 L 21.707031 24.480469 L 21.710938 24.484375 L 21.71875 24.488281 L 21.738281 24.503906 L 21.746094 24.511719 C 21.757812 24.519531 21.761719 24.53125 21.769531 24.542969 L 21.980469 25.003906 C 21.992188 25.023438 22.003906 25.042969 22.023438 25.054688 L 22.042969 25.066406 L 22.050781 25.070312 C 22.058594 25.074219 22.070312 25.078125 22.082031 25.082031 L 22.574219 25.152344 C 22.644531 25.164062 22.695312 25.230469 22.683594 25.300781 C 22.679688 25.332031 22.667969 25.355469 22.648438 25.375 L 22.5625 25.460938 C 22.5625 25.460938 22.28125 25.75 22.28125 25.75 C 22.253906 25.777344 22.238281 25.820312 22.246094 25.863281 L 22.332031 26.382812 C 22.335938 26.398438 22.335938 26.414062 22.332031 26.425781 L 22.332031 26.433594 C 22.332031 26.433594 22.328125 26.445312 22.328125 26.445312 L 22.3125 26.476562 L 22.308594 26.480469 L 22.296875 26.496094 L 22.285156 26.507812 L 22.277344 26.511719 L 22.273438 26.515625 L 22.257812 26.523438 L 22.238281 26.53125 L 22.230469 26.53125 L 22.226562 26.535156 L 22.203125 26.535156 C 22.203125 26.535156 22.1875 26.539062 22.1875 26.539062 L 22.183594 26.535156 L 22.179688 26.535156 C 22.164062 26.53125 22.152344 26.527344 22.140625 26.519531 L 21.710938 26.28125 C 21.703125 26.277344 21.691406 26.273438 21.679688 26.269531 L 21.648438 26.265625 L 21.617188 26.269531 C 21.605469 26.273438 21.59375 26.277344 21.585938 26.28125 L 21.160156 26.519531 C 21.144531 26.527344 21.132812 26.535156 21.117188 26.535156 L 21.113281 26.535156 C 21.113281 26.535156 21.109375 26.539062 21.109375 26.539062 L 21.09375 26.535156 L 21.074219 26.535156 C 21.074219 26.535156 21.066406 26.535156 21.066406 26.535156 L 21.058594 26.53125 L 21.039062 26.523438 L 21.023438 26.515625 L 21.019531 26.511719 L 21.011719 26.511719 L 20.988281 26.480469 L 20.984375 26.476562 L 20.980469 26.46875 L 20.972656 26.445312 L 20.964844 26.4375 L 20.964844 26.433594 C 20.964844 26.433594 20.964844 26.425781 20.964844 26.425781 C 20.960938 26.414062 20.960938 26.398438 20.964844 26.382812 L 21.050781 25.863281 C 21.058594 25.820312 21.042969 25.777344 21.015625 25.75 L 20.792969 25.523438 C 20.792969 25.523438 20.648438 25.375 20.648438 25.375 C 20.628906 25.355469 20.617188 25.332031 20.613281 25.300781 C 20.601562 25.230469 20.652344 25.164062 20.722656 25.152344 L 21.214844 25.082031 C 21.226562 25.078125 21.238281 25.074219 21.246094 25.070312 L 21.253906 25.066406 L 21.273438 25.054688 C 21.292969 25.042969 21.304688 25.027344 21.316406 25.007812 L 21.527344 24.546875 C 21.535156 24.53125 21.542969 24.523438 21.550781 24.511719 L 21.558594 24.503906 L 21.578125 24.488281 L 21.59375 24.480469 L 21.597656 24.480469 L 21.613281 24.472656 L 21.636719 24.46875 Z M 21.644531 24.46875 " fill-opacity="1" fill-rule="evenodd"/><path fill="#36352a" d="M 15.335938 24.46875 L 15.339844 24.46875 C 15.339844 24.46875 15.34375 24.46875 15.34375 24.46875 L 15.351562 24.46875 L 15.371094 24.472656 L 15.386719 24.480469 L 15.394531 24.480469 L 15.398438 24.484375 L 15.40625 24.488281 L 15.425781 24.503906 L 15.433594 24.511719 C 15.441406 24.519531 15.449219 24.53125 15.457031 24.542969 L 15.667969 25.003906 C 15.675781 25.023438 15.691406 25.042969 15.707031 25.054688 L 15.726562 25.066406 L 15.734375 25.070312 C 15.742188 25.074219 15.753906 25.078125 15.765625 25.082031 L 16.25 25.152344 C 16.320312 25.164062 16.367188 25.230469 16.359375 25.300781 C 16.355469 25.332031 16.339844 25.355469 16.320312 25.375 L 16.238281 25.460938 C 16.238281 25.460938 15.960938 25.75 15.960938 25.75 C 15.933594 25.777344 15.917969 25.820312 15.925781 25.863281 L 16.011719 26.382812 C 16.015625 26.398438 16.015625 26.414062 16.011719 26.425781 L 16.011719 26.433594 C 16.011719 26.433594 16.003906 26.445312 16.003906 26.445312 L 15.996094 26.46875 L 15.992188 26.476562 L 15.988281 26.480469 L 15.976562 26.496094 L 15.964844 26.507812 L 15.957031 26.511719 L 15.953125 26.515625 L 15.9375 26.523438 L 15.917969 26.53125 L 15.910156 26.53125 L 15.90625 26.535156 L 15.882812 26.535156 C 15.882812 26.535156 15.871094 26.539062 15.871094 26.539062 L 15.867188 26.535156 L 15.863281 26.535156 C 15.847656 26.53125 15.832031 26.527344 15.820312 26.519531 L 15.402344 26.28125 C 15.390625 26.277344 15.378906 26.273438 15.371094 26.269531 L 15.339844 26.265625 L 15.304688 26.269531 C 15.296875 26.273438 15.285156 26.277344 15.273438 26.28125 L 14.855469 26.519531 C 14.84375 26.527344 14.828125 26.535156 14.8125 26.535156 L 14.808594 26.535156 C 14.808594 26.535156 14.804688 26.539062 14.804688 26.539062 L 14.792969 26.535156 L 14.769531 26.535156 C 14.769531 26.535156 14.765625 26.535156 14.765625 26.535156 L 14.757812 26.53125 L 14.738281 26.523438 L 14.722656 26.515625 L 14.71875 26.511719 L 14.710938 26.511719 L 14.6875 26.480469 L 14.683594 26.476562 L 14.679688 26.46875 L 14.671875 26.445312 L 14.664062 26.4375 L 14.664062 26.433594 C 14.664062 26.433594 14.664062 26.425781 14.664062 26.425781 C 14.660156 26.414062 14.660156 26.398438 14.664062 26.382812 L 14.75 25.863281 C 14.753906 25.820312 14.742188 25.777344 14.714844 25.75 L 14.496094 25.523438 C 14.496094 25.523438 14.355469 25.375 14.355469 25.375 C 14.335938 25.355469 14.320312 25.332031 14.316406 25.300781 C 14.308594 25.230469 14.355469 25.164062 14.425781 25.152344 L 14.910156 25.082031 C 14.921875 25.078125 14.933594 25.074219 14.941406 25.070312 L 14.949219 25.066406 L 14.96875 25.054688 C 14.988281 25.042969 15 25.027344 15.007812 25.007812 L 15.21875 24.546875 C 15.226562 24.53125 15.230469 24.523438 15.242188 24.511719 L 15.25 24.503906 L 15.269531 24.488281 L 15.277344 24.484375 L 15.28125 24.480469 L 15.289062 24.480469 L 15.304688 24.472656 L 15.324219 24.46875 Z M 15.335938 24.46875 " fill-opacity="1" fill-rule="evenodd"/><path fill="#36352a" d="M 23.386719 17.757812 L 23.109375 19.484375 L 23.664062 19.484375 Z M 17.796875 17.300781 C 17.628906 17.300781 17.515625 17.351562 17.457031 17.453125 C 17.402344 17.554688 17.371094 17.707031 17.371094 17.90625 L 17.371094 19.796875 C 17.371094 19.996094 17.402344 20.148438 17.457031 20.253906 C 17.515625 20.359375 17.628906 20.414062 17.796875 20.414062 C 17.964844 20.414062 18.074219 20.359375 18.132812 20.253906 C 18.191406 20.144531 18.21875 19.996094 18.21875 19.796875 L 18.21875 17.90625 C 18.21875 17.710938 18.191406 17.558594 18.132812 17.457031 C 18.074219 17.351562 17.964844 17.300781 17.796875 17.300781 Z M 30.425781 16.796875 L 31.121094 16.796875 L 31.625 18.429688 L 32.097656 16.796875 L 32.777344 16.796875 L 31.960938 19.339844 L 31.960938 20.910156 L 31.25 20.910156 L 31.25 19.339844 Z M 28.277344 16.796875 L 30.304688 16.796875 L 30.304688 17.351562 L 29.671875 17.351562 L 29.671875 20.910156 L 28.925781 20.910156 L 28.925781 17.351562 L 28.277344 17.351562 Z M 27.15625 16.796875 L 27.890625 16.796875 L 27.890625 20.910156 L 27.15625 20.910156 Z M 25.007812 16.796875 L 25.75 16.796875 L 25.75 20.398438 L 26.742188 20.398438 L 26.742188 20.910156 L 25.007812 20.910156 Z M 22.984375 16.796875 L 23.777344 16.796875 L 24.59375 20.910156 L 23.90625 20.910156 L 23.742188 19.960938 L 23.03125 19.960938 L 22.867188 20.910156 L 22.167969 20.910156 Z M 19.488281 16.796875 L 20.214844 16.796875 L 20.214844 19.664062 C 20.214844 19.902344 20.242188 20.085938 20.296875 20.214844 C 20.351562 20.34375 20.464844 20.40625 20.636719 20.40625 C 20.808594 20.40625 20.925781 20.34375 20.980469 20.214844 C 21.035156 20.085938 21.066406 19.902344 21.066406 19.664062 L 21.066406 16.796875 L 21.785156 16.796875 L 21.785156 19.578125 C 21.785156 19.882812 21.75 20.136719 21.683594 20.339844 C 21.617188 20.539062 21.5 20.695312 21.332031 20.800781 C 21.164062 20.910156 20.933594 20.964844 20.636719 20.964844 C 20.339844 20.964844 20.109375 20.910156 19.941406 20.800781 C 19.773438 20.695312 19.65625 20.539062 19.589844 20.339844 C 19.523438 20.140625 19.488281 19.886719 19.488281 19.578125 Z M 12.492188 16.796875 L 13.234375 16.796875 L 13.234375 18.515625 L 14.0625 18.515625 L 14.0625 16.796875 L 14.808594 16.796875 L 14.808594 20.910156 L 14.0625 20.910156 L 14.0625 19.050781 L 13.234375 19.050781 L 13.234375 20.910156 L 12.492188 20.910156 Z M 8.304688 16.796875 L 9.039062 16.796875 L 9.039062 20.910156 L 8.304688 20.910156 Z M 5.347656 16.796875 L 6.085938 16.796875 L 6.085938 18.515625 L 6.917969 18.515625 L 6.917969 16.796875 L 7.664062 16.796875 L 7.664062 20.910156 L 6.917969 20.910156 L 6.917969 19.050781 L 6.085938 19.050781 L 6.085938 20.910156 L 5.347656 20.910156 Z M 17.796875 16.753906 C 18.214844 16.753906 18.515625 16.863281 18.695312 17.085938 C 18.878906 17.3125 18.96875 17.640625 18.96875 18.078125 L 18.96875 19.621094 C 18.96875 20.253906 18.78125 20.660156 18.40625 20.839844 C 18.5625 21.03125 18.699219 21.164062 18.8125 21.234375 L 18.671875 21.730469 C 18.550781 21.675781 18.414062 21.570312 18.265625 21.421875 C 18.113281 21.273438 17.984375 21.117188 17.882812 20.960938 C 17.863281 20.964844 17.835938 20.964844 17.796875 20.964844 C 17.371094 20.964844 17.070312 20.851562 16.890625 20.621094 C 16.707031 20.394531 16.617188 20.058594 16.617188 19.621094 L 16.617188 18.078125 C 16.617188 17.640625 16.707031 17.3125 16.890625 17.085938 C 17.070312 16.863281 17.371094 16.753906 17.796875 16.753906 Z M 10.761719 16.753906 C 11.164062 16.753906 11.453125 16.855469 11.628906 17.054688 C 11.804688 17.257812 11.890625 17.554688 11.890625 17.949219 L 11.890625 18.164062 L 11.179688 18.164062 L 11.179688 17.929688 C 11.179688 17.78125 11.171875 17.664062 11.152344 17.574219 C 11.132812 17.488281 11.09375 17.421875 11.035156 17.371094 C 10.976562 17.324219 10.890625 17.300781 10.773438 17.300781 C 10.648438 17.300781 10.554688 17.332031 10.496094 17.394531 C 10.433594 17.453125 10.394531 17.53125 10.375 17.625 C 10.359375 17.722656 10.347656 17.84375 10.347656 17.996094 L 10.347656 19.71875 C 10.347656 19.949219 10.378906 20.125 10.441406 20.238281 C 10.503906 20.355469 10.621094 20.414062 10.792969 20.414062 C 10.964844 20.414062 11.078125 20.351562 11.140625 20.230469 C 11.207031 20.109375 11.238281 19.925781 11.238281 19.683594 L 11.238281 19.296875 L 10.800781 19.296875 L 10.800781 18.824219 L 11.910156 18.824219 L 11.910156 20.910156 L 11.425781 20.910156 L 11.375 20.507812 C 11.25 20.8125 11.019531 20.964844 10.6875 20.964844 C 10.300781 20.964844 10.023438 20.84375 9.851562 20.601562 C 9.683594 20.359375 9.597656 20.011719 9.597656 19.554688 L 9.597656 18.175781 C 9.597656 17.703125 9.6875 17.347656 9.859375 17.109375 C 10.035156 16.871094 10.335938 16.753906 10.761719 16.753906 Z M 10.761719 16.753906 " fill-opacity="1" fill-rule="evenodd"/></svg>